<?xml version="1.0" encoding="UTF-8"?>
<svg version="1.1" xmlns="http://www.w3.org/2000/svg" width="431" height="431">
<path d="M0 0 C2.70465495 0.01073276 5.40864604 0.00002548 8.11328125 -0.01269531 C23.23878861 -0.02671738 37.834335 1.09307439 52.51953125 4.94824219 C53.53668213 5.21169434 54.55383301 5.47514648 55.60180664 5.74658203 C79.72736819 12.15119853 103.27112624 21.74551994 123.70703125 36.26074219 C124.66222656 36.92589844 125.61742187 37.59105469 126.6015625 38.27636719 C164.95205063 65.52398672 193.11049127 102.81859803 208.45703125 147.32324219 C208.80967041 148.31888184 209.16230957 149.31452148 209.52563477 150.34033203 C216.26429648 170.69067941 218.5426964 191.27753538 218.35888672 212.62915039 C218.33201305 216.32574611 218.35885757 220.01931369 218.390625 223.71582031 C218.47106577 280.09217579 193.04115839 332.13474111 154.14453125 372.07324219 C149.27373429 376.81286867 144.03984619 381.05547721 138.70703125 385.26074219 C137.19109375 386.48470703 137.19109375 386.48470703 135.64453125 387.73339844 C127.75692503 394.03298614 119.4999704 399.31849678 110.70703125 404.26074219 C110.00368652 404.66292969 109.3003418 405.06511719 108.57568359 405.47949219 C81.58571069 420.80994052 50.00281288 431.48293833 18.76171875 431.63183594 C17.55299103 431.64086441 16.34426331 431.64989288 15.09890747 431.65919495 C12.54919882 431.67362215 9.99945379 431.68256529 7.44970703 431.6862793 C3.64027393 431.69806204 -0.16747541 431.74723164 -3.9765625 431.79785156 C-25.26786763 431.93984369 -45.82943063 429.22868238 -65.98046875 422.13574219 C-67.08583984 421.75522705 -68.19121094 421.37471191 -69.33007812 420.98266602 C-107.18319619 407.5569429 -142.73332072 383.27106996 -167.29296875 351.26074219 C-167.77491699 350.63876953 -168.25686523 350.01679688 -168.75341797 349.37597656 C-194.93559075 315.33670426 -213.11962044 271.54964779 -213.53125 228.17089844 C-213.5458728 226.89049683 -213.5458728 226.89049683 -213.56079102 225.58422852 C-213.73142457 206.76676051 -213.53758042 188.69009966 -209.29296875 170.26074219 C-209.1110498 169.43251953 -208.92913086 168.60429687 -208.74169922 167.75097656 C-198.29332018 121.02739416 -171.76093618 78.08545806 -134.29296875 48.26074219 C-133.50277344 47.60332031 -132.71257812 46.94589844 -131.8984375 46.26855469 C-107.86589226 26.420781 -79.28703708 13.40109274 -49.21484375 5.75585938 C-47.50532582 5.31545003 -45.80459969 4.8412264 -44.10546875 4.36230469 C-29.66225454 0.39827035 -14.88617187 -0.07001456 0 0 Z " fill="#D0538F" transform="translate(213.29296875,-0.2607421875)"/>
<path d="M0 0 C1.99049389 -0.00067688 3.98098771 -0.00165006 5.97148132 -0.00289917 C10.09989221 -0.00435643 14.22828116 -0.00228502 18.35668945 0.00244141 C23.59845112 0.00815639 28.84016174 0.00483583 34.08192158 -0.00113106 C38.177021 -0.00477446 42.27210867 -0.00358119 46.36720848 -0.00100327 C48.29854527 -0.00034539 50.22988319 -0.00112158 52.16121864 -0.00348282 C85.10358124 -0.03496246 116.39652603 0.71126583 141.32421875 25.1328125 C141.95199219 25.72449219 142.57976562 26.31617187 143.2265625 26.92578125 C164.98231868 49.2735308 163.48154545 84.4631885 163.4921875 113.265625 C163.49541407 115.35716778 163.49877909 117.44871034 163.50227356 119.54025269 C163.50821451 123.89858522 163.5101187 128.25689808 163.50952148 132.61523438 C163.50942015 138.12773958 163.52306626 143.64011518 163.54029369 149.1525898 C163.55155571 153.46673126 163.5534364 157.78084277 163.55291176 162.09499741 C163.55407087 164.12382325 163.55837188 166.15265043 163.56624413 168.18146133 C163.67087668 197.92714684 163.4651184 229.27660127 143.32421875 253.1328125 C142.43669922 254.18855469 142.43669922 254.18855469 141.53125 255.265625 C127.51385792 270.50841809 106.53306237 277.70712561 86.32421875 279.1328125 C81.73832109 279.26144326 77.15600622 279.24943275 72.56860352 279.23046875 C71.21240799 279.22854546 69.85621175 279.22708361 68.50001526 279.2260437 C65.60052199 279.22290397 62.7010585 279.21666841 59.80157661 279.20797729 C55.21708022 279.19437345 50.63259342 279.18854446 46.04808044 279.18383789 C36.32761341 279.17278021 26.60716998 279.15321332 16.88671875 279.1328125 C6.36659178 279.11077324 -4.1535259 279.09022557 -14.67367131 279.07939434 C-19.23231102 279.074411 -23.79090636 279.06455155 -28.34952819 279.05096436 C-31.17834895 279.04351743 -34.00716357 279.04019186 -36.83599281 279.0379982 C-38.77598464 279.03522758 -40.71596723 279.02743055 -42.65594482 279.01950073 C-44.3821833 279.01939499 -44.3821833 279.01939499 -46.14329529 279.01928711 C-47.14520118 279.0170665 -48.14710707 279.01484589 -49.17937374 279.01255798 C-51.80704272 279.02644666 -51.80704272 279.02644666 -54.67578125 280.1328125 C-57.36328125 278.8203125 -57.36328125 278.8203125 -59.67578125 277.1328125 C-59.67578125 276.4728125 -59.67578125 275.8128125 -59.67578125 275.1328125 C-60.34222656 274.98585938 -61.00867188 274.83890625 -61.6953125 274.6875 C-78.59593524 270.57462118 -93.11295717 259.68294675 -102.67578125 245.1328125 C-105.41372789 240.3153332 -107.59916017 235.26652828 -109.67578125 230.1328125 C-110.07120117 229.16698242 -110.07120117 229.16698242 -110.47460938 228.18164062 C-112.30361071 223.55268663 -113.47281357 219.0347575 -114.30078125 214.1328125 C-114.42195313 213.49214844 -114.543125 212.85148438 -114.66796875 212.19140625 C-117.25880339 197.35042956 -116.8382869 182.01986378 -116.84375 167.01171875 C-116.84697526 164.89729288 -116.85034021 162.78286721 -116.85383606 160.66844177 C-116.85978602 156.2552743 -116.86168035 151.84212628 -116.86108398 147.42895508 C-116.86100289 142.95593203 -116.8679244 138.48301175 -116.8815918 134.01000977 C-117.13462402 49.92629788 -117.13462402 49.92629788 -95.67578125 26.1328125 C-95.18078125 25.54628906 -94.68578125 24.95976563 -94.17578125 24.35546875 C-80.48858474 9.26533459 -58.76790548 1.95085695 -38.94172668 0.82107544 C-37.15905567 0.73528923 -35.37612742 0.65473498 -33.59301758 0.57861328 C-32.1474018 0.51544765 -32.1474018 0.51544765 -30.67258167 0.45100594 C-20.44783157 0.03591138 -10.23169814 -0.01258612 0 0 Z " fill="#E43B79" transform="translate(192.67578125,75.8671875)"/>
<path d="M0 0 C1.99049389 -0.00067688 3.98098771 -0.00165006 5.97148132 -0.00289917 C10.09989221 -0.00435643 14.22828116 -0.00228502 18.35668945 0.00244141 C23.59845112 0.00815639 28.84016174 0.00483583 34.08192158 -0.00113106 C38.177021 -0.00477446 42.27210867 -0.00358119 46.36720848 -0.00100327 C48.29854527 -0.00034539 50.22988319 -0.00112158 52.16121864 -0.00348282 C85.10358124 -0.03496246 116.39652603 0.71126583 141.32421875 25.1328125 C141.95199219 25.72449219 142.57976562 26.31617187 143.2265625 26.92578125 C164.98231868 49.2735308 163.48154545 84.4631885 163.4921875 113.265625 C163.49541407 115.35716778 163.49877909 117.44871034 163.50227356 119.54025269 C163.50821451 123.89858522 163.5101187 128.25689808 163.50952148 132.61523438 C163.50942015 138.12773958 163.52306626 143.64011518 163.54029369 149.1525898 C163.55155571 153.46673126 163.5534364 157.78084277 163.55291176 162.09499741 C163.55407087 164.12382325 163.55837188 166.15265043 163.56624413 168.18146133 C163.67087668 197.92714684 163.4651184 229.27660127 143.32421875 253.1328125 C142.43669922 254.18855469 142.43669922 254.18855469 141.53125 255.265625 C127.51385792 270.50841809 106.53306237 277.70712561 86.32421875 279.1328125 C81.73832109 279.26144326 77.15600622 279.24943275 72.56860352 279.23046875 C71.21240799 279.22854546 69.85621175 279.22708361 68.50001526 279.2260437 C65.60052199 279.22290397 62.7010585 279.21666841 59.80157661 279.20797729 C55.21708022 279.19437345 50.63259342 279.18854446 46.04808044 279.18383789 C36.32761341 279.17278021 26.60716998 279.15321332 16.88671875 279.1328125 C6.36659178 279.11077324 -4.1535259 279.09022557 -14.67367131 279.07939434 C-19.23231102 279.074411 -23.79090636 279.06455155 -28.34952819 279.05096436 C-31.17834895 279.04351743 -34.00716357 279.04019186 -36.83599281 279.0379982 C-38.77598464 279.03522758 -40.71596723 279.02743055 -42.65594482 279.01950073 C-44.3821833 279.01939499 -44.3821833 279.01939499 -46.14329529 279.01928711 C-47.14520118 279.0170665 -48.14710707 279.01484589 -49.17937374 279.01255798 C-51.80704272 279.02644666 -51.80704272 279.02644666 -54.67578125 280.1328125 C-57.36328125 278.8203125 -57.36328125 278.8203125 -59.67578125 277.1328125 C-59.67578125 276.4728125 -59.67578125 275.8128125 -59.67578125 275.1328125 C-60.34222656 274.98585938 -61.00867188 274.83890625 -61.6953125 274.6875 C-78.59593524 270.57462118 -93.11295717 259.68294675 -102.67578125 245.1328125 C-105.41372789 240.3153332 -107.59916017 235.26652828 -109.67578125 230.1328125 C-110.07120117 229.16698242 -110.07120117 229.16698242 -110.47460938 228.18164062 C-112.30361071 223.55268663 -113.47281357 219.0347575 -114.30078125 214.1328125 C-114.42195313 213.49214844 -114.543125 212.85148438 -114.66796875 212.19140625 C-117.25880339 197.35042956 -116.8382869 182.01986378 -116.84375 167.01171875 C-116.84697526 164.89729288 -116.85034021 162.78286721 -116.85383606 160.66844177 C-116.85978602 156.2552743 -116.86168035 151.84212628 -116.86108398 147.42895508 C-116.86100289 142.95593203 -116.8679244 138.48301175 -116.8815918 134.01000977 C-117.13462402 49.92629788 -117.13462402 49.92629788 -95.67578125 26.1328125 C-95.18078125 25.54628906 -94.68578125 24.95976563 -94.17578125 24.35546875 C-80.48858474 9.26533459 -58.76790548 1.95085695 -38.94172668 0.82107544 C-37.15905567 0.73528923 -35.37612742 0.65473498 -33.59301758 0.57861328 C-32.1474018 0.51544765 -32.1474018 0.51544765 -30.67258167 0.45100594 C-20.44783157 0.03591138 -10.23169814 -0.01258612 0 0 Z M-77.98828125 44.4453125 C-88.98234021 57.58941928 -90.8197674 74.20586233 -90.83691406 90.76513672 C-90.84187897 91.91903397 -90.84684387 93.07293121 -90.85195923 94.26179504 C-90.8665336 98.07036951 -90.87337679 101.87890225 -90.87890625 105.6875 C-90.88320691 107.676008 -90.88750813 109.664516 -90.89188075 111.65302384 C-90.90367396 117.19737872 -90.91122205 122.74172363 -90.91467595 128.28608978 C-90.91914035 135.40999731 -90.9366185 142.53371142 -90.96567655 149.65756023 C-90.98745689 155.19338158 -90.997389 160.72914921 -90.99871707 166.26501286 C-90.99975437 169.55697828 -91.00692713 172.84872277 -91.02353668 176.1406517 C-91.13495841 199.93167719 -90.81446041 222.03155836 -73.6484375 240.2890625 C-56.73708396 256.68053718 -29.56100205 254.58968139 -7.6875 254.49609375 C-5.24477641 254.49557329 -2.8020524 254.49609816 -0.35932922 254.49760437 C4.72087994 254.49751542 9.80092787 254.487242 14.88110352 254.46899414 C21.35054121 254.44624927 27.81974547 254.44578248 34.28921223 254.45251179 C39.31933115 254.45587206 44.34939806 254.44918408 49.37950706 254.43938255 C51.76382359 254.43557027 54.14814594 254.43436557 56.53246498 254.4359684 C91.68286265 254.79954879 91.68286265 254.79954879 122.13671875 239.1328125 C135.73791712 224.42080846 137.47783339 204.55867441 137.46948242 185.49536133 C137.47284103 184.3768277 137.47619965 183.25829407 137.47966003 182.10586548 C137.489104 178.43384671 137.49110991 174.76187388 137.4921875 171.08984375 C137.49540486 168.51690147 137.49876929 165.94395936 137.50227356 163.37101746 C137.50824862 157.98553973 137.51015823 152.60007998 137.50952148 147.21459961 C137.50892193 141.02759134 137.51945693 134.8406706 137.53526515 128.65368444 C137.55002338 122.65974113 137.55350664 116.66584458 137.55291176 110.67188072 C137.55408428 108.14159475 137.55846469 105.61130799 137.56624413 103.08103371 C137.82769606 68.95758157 137.82769606 68.95758157 120.88671875 40.3203125 C103.2129217 23.40983559 76.1276256 25.81764302 53.4140625 25.83203125 C50.83109978 25.82813461 48.24813768 25.82379798 45.66517639 25.81904602 C40.27863194 25.81162722 34.89215994 25.81170274 29.50561523 25.81713867 C23.32354098 25.82318235 17.14169409 25.81083676 10.95965856 25.7895686 C4.95233807 25.76968017 -1.0548652 25.76679575 -7.06222343 25.77030373 C-9.5916847 25.76979438 -12.1211499 25.76463035 -14.6505909 25.75449181 C-38.07684606 25.67206741 -60.84535495 26.24100427 -77.98828125 44.4453125 Z " fill="#FDFAFC" transform="translate(192.67578125,75.8671875)"/>
<path d="M0 0 C1.36898437 0.41572266 1.36898437 0.41572266 2.765625 0.83984375 C19.79494794 6.80010678 33.90584689 21.22210227 41.6875 37.1875 C49.34725232 55.34770748 51.00183108 74.34910482 44 93 C40.23393014 101.99089589 35.53389386 109.73137109 29 117 C28.48179687 117.61101562 27.96359375 118.22203125 27.4296875 118.8515625 C15.16333716 132.35071187 -2.95154186 139.04781045 -20.74609375 140.25390625 C-41.72243665 141.10475286 -60.17388326 132.97636402 -75.625 118.875 C-89.8740142 103.80589865 -96.82126103 84.14526678 -96.3125 63.671875 C-95.57215519 48.75392705 -89.61696249 33.47083477 -80 22 C-79.34 22 -78.68 22 -78 22 C-77.76023438 21.42894531 -77.52046875 20.85789063 -77.2734375 20.26953125 C-70.25588707 7.7627926 -53.71945201 1.16875693 -40.6875 -2.68359375 C-26.89845139 -6.06097897 -13.31350749 -4.17137189 0 0 Z " fill="#FDFAFB" transform="translate(240,148)"/>
<path d="M0 0 C11.57523531 7.1805697 18.2747243 16.8397979 22.5546875 29.6796875 C23.45879852 44.82725244 22.51893412 58.45718873 12.5546875 70.6796875 C12.00296875 71.36675781 11.45125 72.05382812 10.8828125 72.76171875 C4.16099696 80.27349125 -6.27860602 86.1256219 -16.43530273 86.81469727 C-31.45668676 87.49873704 -42.6060249 85.63098239 -54.4453125 75.6796875 C-60.35991913 70.09712897 -64.26064872 64.13525696 -67.4453125 56.6796875 C-67.81140625 55.94234375 -68.1775 55.205 -68.5546875 54.4453125 C-71.99529072 43.76133409 -70.04023118 29.63081316 -65.4453125 19.6796875 C-58.83056179 7.68402559 -49.18196348 0.63563725 -36.71484375 -4.4296875 C-24.6199958 -7.72434142 -10.90644486 -5.88878333 0 0 Z " fill="#F6267F" transform="translate(239.4453125,175.3203125)"/>
<path d="M0 0 C4.82183237 2.32162299 8.05633995 5.54245764 11 10 C12.35511701 14.5558535 12.24144908 18.10965654 11 22.6875 C8.27785414 27.19605408 4.7399971 30.63000145 0 33 C-5.25575165 33.5238576 -9.64526095 33.66505372 -14.4375 31.3125 C-18.54712292 27.6038159 -21.64141996 24.41532795 -22.23828125 18.73046875 C-22.4079021 12.91872264 -21.99969908 9.54019896 -18 5 C-12.09150047 -0.20510673 -7.76961923 -0.78136397 0 0 Z " fill="#FDFAFC" transform="translate(296,125)"/>
<path d="M0 0 C1.6869548 -0.00503792 1.6869548 -0.00503792 3.4079895 -0.01017761 C7.11917229 -0.01966024 10.83030976 -0.02162983 14.54150391 -0.02270508 C17.1363629 -0.0259211 19.73122171 -0.02928543 22.32608032 -0.03279114 C27.76817318 -0.03877682 33.21024825 -0.04067474 38.65234375 -0.04003906 C44.90002942 -0.03944093 51.147628 -0.04994328 57.39529169 -0.06578273 C63.44528445 -0.08056279 69.49523628 -0.08402353 75.54524612 -0.08342934 C78.09899881 -0.08460074 80.6527523 -0.08897471 83.20649338 -0.0967617 C112.6462135 -0.17807985 112.6462135 -0.17807985 123.64306641 2.14526367 C124.63306641 3.13526367 124.63306641 3.13526367 125.64306641 4.14526367 C122.2961632 5.19117092 120.5809226 5.12820121 117.14520264 4.18487549 C111.96649819 2.82512181 106.93636818 2.86496856 101.60888672 2.88647461 C100.53149734 2.88296997 99.45410797 2.87946533 98.34407043 2.87585449 C94.80304415 2.86709211 91.26221952 2.87286531 87.72119141 2.87963867 C85.25356 2.87829084 82.78592884 2.87634932 80.31829834 2.87384033 C75.15716005 2.87089685 69.99609115 2.87516329 64.83496094 2.88452148 C58.21488578 2.89593945 51.59497239 2.88933673 44.97490311 2.87737656 C39.88434627 2.87015747 34.79382794 2.87244571 29.70326996 2.87763214 C27.26158377 2.87896726 24.8198941 2.87732574 22.37821198 2.87267303 C18.97193597 2.86760449 15.56592425 2.87532184 12.15966797 2.88647461 C11.14868546 2.88242615 10.13770294 2.87837769 9.09608459 2.87420654 C8.16817612 2.87984619 7.24026764 2.88548584 6.28424072 2.89129639 C5.07752905 2.89242746 5.07752905 2.89242746 3.84643936 2.89358139 C1.38592323 3.17463609 -0.19602765 3.97105038 -2.35693359 5.14526367 C-9.41545768 6.44195739 -16.28682208 6.14213406 -23.35693359 5.14526367 C-23.35693359 5.80526367 -23.35693359 6.46526367 -23.35693359 7.14526367 C-24.31599609 7.05245117 -24.31599609 7.05245117 -25.29443359 6.95776367 C-32.71373676 7.41200672 -38.00636534 10.15950689 -43.35693359 15.14526367 C-44.24380859 15.80526367 -45.13068359 16.46526367 -46.04443359 17.14526367 C-48.51816804 19.28470968 -49.76086265 21.31586517 -51.35693359 24.14526367 C-51.87255859 24.57838867 -52.38818359 25.01151367 -52.91943359 25.45776367 C-55.27906043 28.22776039 -55.61874172 31.64891854 -56.35693359 35.14526367 C-56.68624764 36.4795954 -57.0190023 37.81308826 -57.35693359 39.14526367 C-57.57349609 40.07338867 -57.57349609 40.07338867 -57.79443359 41.02026367 C-58.35693359 43.14526367 -58.35693359 43.14526367 -59.41943359 45.77026367 C-60.67020698 50.27304786 -60.52206478 54.50324265 -60.35693359 59.14526367 C-63.70997572 54.11570048 -63.70421825 48.89970769 -62.95849609 42.98510742 C-60.22203683 29.47987611 -53.45890119 17.89883486 -42.12255859 9.84838867 C-34.6510869 5.14019392 -27.09695371 2.50632215 -18.35693359 1.14526367 C-16.88188858 0.88763496 -16.88188858 0.88763496 -15.37704468 0.62480164 C-10.26888133 -0.09586026 -5.14912657 -0.0022192 0 0 Z " fill="#9F37B6" transform="translate(166.35693359375,101.854736328125)"/>
<path d="M0 0 C0.9787912 -0.00137466 1.9575824 -0.00274933 2.96603394 -0.00416565 C4.58227661 0.00122726 4.58227661 0.00122726 6.23117065 0.00672913 C7.36287689 0.0065831 8.49458313 0.00643707 9.6605835 0.00628662 C13.41573986 0.00698544 17.17084713 0.01477645 20.92599487 0.02259827 C23.52388482 0.02446255 26.12177511 0.02588641 28.71966553 0.02688599 C34.8678202 0.03031906 41.0159545 0.03820721 47.16410148 0.04823548 C54.16280305 0.05940385 61.16150545 0.06490889 68.16021371 0.06993091 C82.5587128 0.08039001 96.95719696 0.09798495 111.35568237 0.12025452 C111.35568237 0.78025452 111.35568237 1.44025452 111.35568237 2.12025452 C112.35728394 1.77736389 113.3588855 1.43447327 114.39083862 1.08119202 C126.67560021 -2.40231629 146.25784411 3.76026453 157.35568237 9.12025452 C157.68568237 9.78025452 158.01568237 10.44025452 158.35568237 11.12025452 C159.67568237 10.79025452 160.99568237 10.46025452 162.35568237 10.12025452 C162.35568237 11.11025452 162.35568237 12.10025452 162.35568237 13.12025452 C163.26318237 13.34712952 164.17068237 13.57400452 165.10568237 13.80775452 C168.91122454 15.34460809 169.93788119 16.87133418 172.35568237 20.12025452 C174.3352518 21.81113673 176.33513433 23.47855923 178.35568237 25.12025452 C181.12247143 27.65647782 182.73574942 29.76467912 184.35568237 33.12025452 C185.01568237 33.45025452 185.67568237 33.78025452 186.35568237 34.12025452 C186.35568237 35.11025452 186.35568237 36.10025452 186.35568237 37.12025452 C187.01568237 37.12025452 187.67568237 37.12025452 188.35568237 37.12025452 C189.17320541 38.70100016 189.98450234 40.28496675 190.79318237 41.87025452 C191.24564331 42.75197327 191.69810425 43.63369202 192.16427612 44.54212952 C194.05175947 48.62651971 194.65101168 52.69089588 195.35568237 57.12025452 C196.01568237 57.12025452 196.67568237 57.12025452 197.35568237 57.12025452 C197.68568237 59.76025452 198.01568237 62.40025452 198.35568237 65.12025452 C197.36568237 65.61525452 197.36568237 65.61525452 196.35568237 66.12025452 C196.00376831 64.97169983 195.65185425 63.82314514 195.28927612 62.63978577 C188.54448035 41.16873654 178.54298644 24.34424777 158.16036987 13.40541077 C135.44183084 2.42209816 110.03839125 2.95725082 85.34396362 2.98744202 C83.35830168 2.98676563 81.37263982 2.98579285 79.38697815 2.98454285 C75.24966636 2.98307986 71.11237636 2.98517377 66.97506714 2.98988342 C61.7392594 2.99556096 56.50350317 2.99230519 51.26769733 2.98631096 C47.17238496 2.98265108 43.07708425 2.98386878 38.98177147 2.98643875 C37.05456727 2.98709411 35.12736192 2.98632987 33.20015907 2.9839592 C22.92648989 2.97409457 12.67609578 3.11753809 2.41110229 3.56214905 C1.50040387 3.60034697 0.58970545 3.63854488 -0.3485899 3.67790031 C-5.84231559 3.94054979 -11.15034119 4.47662084 -16.52322388 5.71791077 C-18.93362713 6.17513275 -21.19661316 6.184781 -23.64431763 6.12025452 C-22.98431763 5.79025452 -22.32431763 5.46025452 -21.64431763 5.12025452 C-21.64431763 4.46025452 -21.64431763 3.80025452 -21.64431763 3.12025452 C-17.304936 2.34139115 -12.98301792 1.81917835 -8.59744263 1.40150452 C-5.46275861 0.95011002 -3.31039834 -0.00357494 0 0 Z " fill="#9D35A9" transform="translate(156.64431762695313,73.87974548339844)"/>
<path d="M0 0 C-9.41002278 4.59225513 -9.41002278 4.59225513 -14 4 C-14.66 5.32 -15.32 6.64 -16 8 C-16.721875 7.62875 -17.44375 7.2575 -18.1875 6.875 C-20.91296183 5.68347266 -20.91296183 5.68347266 -23.05078125 6.94140625 C-27.36493985 8.48993205 -31.456169 8.16975781 -36 8.0625 C-41.66003543 7.94929929 -47.2129747 7.97631541 -52.85473633 8.4934082 C-60.57512972 9.10929527 -68.27322493 9.14526502 -76.01171875 9.1328125 C-77.51617956 9.13348848 -79.02064026 9.13446094 -80.52510071 9.13571167 C-83.6538702 9.13717345 -86.78261085 9.13508264 -89.91137695 9.13037109 C-93.89520645 9.1246598 -97.87896876 9.12797137 -101.86279583 9.13394356 C-104.96082556 9.13757781 -108.05883966 9.13639774 -111.15686989 9.13381577 C-112.62508973 9.13315518 -114.09331105 9.13394406 -115.56152916 9.13629532 C-122.74454887 9.14528323 -129.84772811 9.10079411 -136.98298645 8.1713562 C-139.6463783 7.94508667 -142.17539674 8.33149951 -144.80859375 8.73046875 C-153.06156879 9.74554055 -160.32610061 9.25559368 -168 6 C-168 5.67 -168 5.34 -168 5 C-167.31199751 5.00184359 -166.62399502 5.00368717 -165.91514397 5.00558662 C-149.11969679 5.04989176 -132.32426829 5.08291762 -115.52877617 5.10362434 C-107.4063697 5.11390593 -99.28400241 5.12790612 -91.16162109 5.15087891 C-84.07632072 5.17090881 -76.99104874 5.18373905 -69.90572083 5.18817699 C-66.15940019 5.19076823 -62.41316074 5.19679254 -58.6668663 5.21146011 C-55.12924907 5.22519636 -51.59174523 5.22919084 -48.05410385 5.22621536 C-46.16026093 5.22701428 -44.2664299 5.2376909 -42.37261963 5.24884033 C-31.48062894 5.22310432 -20.7680969 4.18356305 -10.375 0.8125 C-3.60381918 -1.37999905 -3.60381918 -1.37999905 0 0 Z " fill="#F2A64C" transform="translate(311,349)"/>
<path d="M0 0 C5.51135981 5.51135981 4.31236659 17.29224179 4.35058594 24.63427734 C4.36384415 25.73975922 4.37710236 26.84524109 4.39076233 27.98422241 C4.43151156 31.6014354 4.45847429 35.21859002 4.484375 38.8359375 C4.50819257 41.36415102 4.53255416 43.89235946 4.55743408 46.42056274 C4.60718004 51.70074863 4.65019182 56.9809476 4.68798828 62.26123047 C4.73175368 68.35711955 4.78987349 74.45275043 4.85523582 80.5484432 C4.91789157 86.43395437 4.96906671 92.31952518 5.01544952 98.20518875 C5.03634024 100.70189774 5.06030432 103.19858297 5.08739471 105.69523239 C5.12378613 109.17752569 5.14711817 112.65966841 5.16699219 116.14208984 C5.18039139 117.17281616 5.19379059 118.20354248 5.20759583 119.26550293 C5.21037033 120.21569305 5.21314484 121.16588318 5.21600342 122.14486694 C5.22593386 123.37753579 5.22593386 123.37753579 5.23606491 124.63510704 C4.96326674 127.36799293 4.02311509 129.46263856 3 132 C3 133.32 3 134.64 3 136 C3.66 136.66 4.32 137.32 5 138 C4.71125 138.680625 4.4225 139.36125 4.125 140.0625 C2.87402645 143.32893093 1.92552045 146.62846123 1 150 C0.67 150 0.34 150 0 150 C-0.1042894 143.7773994 -0.01005028 137.63172019 0.49560547 131.42700195 C1.18988145 121.36400536 1.14446264 111.31330861 1.1328125 101.23046875 C1.1334886 99.13942961 1.13446116 97.04839056 1.13571167 94.95735168 C1.13717782 90.58948005 1.13507154 86.22162899 1.13037109 81.85375977 C1.12471289 76.33498928 1.12801972 70.81626745 1.13382339 65.2974987 C1.16575719 32.63605763 1.16575719 32.63605763 0 0 Z " fill="#D12F81" transform="translate(354,141)"/>
<path d="M0 0 C1.96066406 0.02320313 1.96066406 0.02320313 3.9609375 0.046875 C7.625 0.25 7.625 0.25 9.98208618 0.7565918 C12.90765809 1.30276972 15.59982608 1.36275196 18.57568359 1.34765625 C20.34702164 1.34270142 20.34702164 1.34270142 22.15414429 1.33764648 C23.43101105 1.32934814 24.70787781 1.3210498 26.0234375 1.3125 C27.37692079 1.30807851 28.73040619 1.30426627 30.08389282 1.30102539 C35.09592106 1.28774773 40.10788895 1.26415579 45.11987305 1.23962402 C60.74018548 1.16416797 76.35524751 1.13581678 91.97121048 1.56838989 C93.33900728 1.60583509 94.70688963 1.64028702 96.07484055 1.67160034 C97.96112684 1.7164143 99.84704959 1.77581944 101.73291016 1.8359375 C103.3364183 1.88306885 103.3364183 1.88306885 104.97232056 1.93115234 C107.625 2.25 107.625 2.25 110.625 4.25 C96.17745391 4.27340857 81.72991078 4.29095159 67.28234959 4.30181217 C60.57339912 4.30695826 53.86446046 4.31396867 47.15551758 4.32543945 C40.67810376 4.33632402 34.20070221 4.34228865 27.72327995 4.34487724 C25.25502263 4.34672145 22.78676596 4.35032271 20.31851387 4.35573006 C16.85498746 4.36301438 13.39151138 4.36398782 9.92797852 4.36352539 C8.40559067 4.3689183 8.40559067 4.3689183 6.85244751 4.37442017 C1.02843904 4.36603473 -4.59825005 4.00058365 -10.375 3.25 C-7.18032125 -0.42079128 -4.82297168 -0.09475386 0 0 Z " fill="#F38D42" transform="translate(160.375,325.75)"/>
<path d="M0 0 C0.9787912 -0.00137466 1.9575824 -0.00274933 2.96603394 -0.00416565 C4.58227661 0.00122726 4.58227661 0.00122726 6.23117065 0.00672913 C7.36287689 0.0065831 8.49458313 0.00643707 9.6605835 0.00628662 C13.41573986 0.00698544 17.17084713 0.01477645 20.92599487 0.02259827 C23.52388482 0.02446255 26.12177511 0.02588641 28.71966553 0.02688599 C34.8678202 0.03031906 41.0159545 0.03820721 47.16410148 0.04823548 C54.16280305 0.05940385 61.16150545 0.06490889 68.16021371 0.06993091 C82.5587128 0.08039001 96.95719696 0.09798495 111.35568237 0.12025452 C111.35568237 0.78025452 111.35568237 1.44025452 111.35568237 2.12025452 C110.18931244 2.13056198 109.0229425 2.14086945 107.82122803 2.15148926 C96.73206497 2.2500134 85.64294828 2.3528082 74.55386162 2.45959377 C68.85533155 2.51433731 63.15679614 2.5676692 57.45822144 2.61756897 C51.94032275 2.66594203 46.42247382 2.71829198 40.90463638 2.77319527 C38.81835321 2.79329443 36.7320566 2.81205275 34.64574814 2.82932854 C23.85799011 2.9195636 13.08421409 3.10853841 2.3053894 3.57362366 C1.40108122 3.61113204 0.49677303 3.64864042 -0.43493843 3.68728542 C-5.90009588 3.94508052 -11.17836391 4.48309489 -16.52322388 5.71791077 C-18.93362713 6.17513275 -21.19661316 6.184781 -23.64431763 6.12025452 C-22.98431763 5.79025452 -22.32431763 5.46025452 -21.64431763 5.12025452 C-21.64431763 4.46025452 -21.64431763 3.80025452 -21.64431763 3.12025452 C-17.304936 2.34139115 -12.98301792 1.81917835 -8.59744263 1.40150452 C-5.46275861 0.95011002 -3.31039834 -0.00357494 0 0 Z " fill="#7935AE" transform="translate(156.64431762695313,73.87974548339844)"/>
<path d="M0 0 C1.54580953 0.05344199 3.09139568 0.11365891 4.63671875 0.1796875 C5.40951172 0.19 6.18230469 0.2003125 6.97851562 0.2109375 C12.74189971 0.46862965 12.74189971 0.46862965 15.7578125 3.50390625 C16.53318359 4.76654297 16.53318359 4.76654297 17.32421875 6.0546875 C17.90171875 6.6115625 18.47921875 7.1684375 19.07421875 7.7421875 C20.32421875 9.0546875 20.32421875 9.0546875 20.32421875 11.0546875 C20.98421875 11.0546875 21.64421875 11.0546875 22.32421875 11.0546875 C23.45362877 17.78536075 23.93480467 23.2899478 19.83984375 29.1953125 C15.43134501 34.61815608 11.98532865 36.61754005 4.921875 37.4609375 C-5.80084058 37.74529681 -5.80084058 37.74529681 -9.92578125 34.3671875 C-12.32774258 31.77860762 -13.79148663 29.51147554 -14.67578125 26.0546875 C-14.94841797 25.01441406 -14.94841797 25.01441406 -15.2265625 23.953125 C-16.28677994 19.64013159 -17.20625145 15.51063715 -16.67578125 11.0546875 C-15.17578125 9.4296875 -15.17578125 9.4296875 -13.67578125 8.0546875 C-13.67578125 6.7346875 -13.67578125 5.4146875 -13.67578125 4.0546875 C-12.02578125 4.0546875 -10.37578125 4.0546875 -8.67578125 4.0546875 C-8.67578125 3.3946875 -8.67578125 2.7346875 -8.67578125 2.0546875 C-8.03640625 1.9103125 -7.39703125 1.7659375 -6.73828125 1.6171875 C-0.85524922 0.01272422 -0.85524922 0.01272422 0 0 Z M-10.98828125 8.6796875 C-14.31937795 13.36789767 -14.14432141 17.42352894 -13.67578125 23.0546875 C-11.74856208 28.72927728 -8.03476383 32.37519621 -2.67578125 35.0546875 C2.52509167 35.57307516 6.94108353 35.72064149 11.69921875 33.4296875 C17.95461511 27.82417084 17.95461511 27.82417084 20.32421875 20.0546875 C20.53998339 15.55060062 20.03836326 12.78663621 17.32421875 9.0546875 C12.76279258 4.5775371 9.59376377 1.91141066 3.07421875 1.7421875 C-3.47939336 1.81072201 -6.66726121 3.77474583 -10.98828125 8.6796875 Z " fill="#C931A0" transform="translate(287.67578125,122.9453125)"/>
<path d="M0 0 C11.71214436 1.42831029 20.6097889 8.13969314 28 17 C38.92445994 34.14336246 38.25133284 54.09860657 37.87890625 73.65625 C37.85451122 75.1803706 37.83067299 76.7045002 37.80735779 78.2286377 C37.74544732 82.18066921 37.6761335 86.13253492 37.60510254 90.08441162 C37.5335614 94.14083503 37.46926351 98.19737316 37.40429688 102.25390625 C37.27648978 110.16939811 37.14083581 118.08472926 37 126 C36.67 126 36.34 126 36 126 C35.98969254 125.26687592 35.97938507 124.53375183 35.96876526 123.77841187 C35.87004019 116.80725594 35.76743245 109.83616987 35.66066074 102.86513329 C35.60592425 99.28283663 35.55259389 95.70053149 35.50268555 92.11816406 C35.45430157 88.64917866 35.40195195 85.18027211 35.34705925 81.71138382 C35.31730846 79.76981676 35.29147413 77.82819091 35.26576233 75.88656616 C35.14618667 68.57116844 34.79862684 61.3143357 34.20762634 54.02139282 C33.97812169 50.68162526 33.98105674 47.38709458 34.03125 44.04296875 C33.97936404 40.65092409 33.48791259 37.35439907 33 34 C32.34 34 31.68 34 31 34 C30.87625 33.46375 30.7525 32.9275 30.625 32.375 C30.00165551 29.87285916 30.00165551 29.87285916 28.9375 27 C28 24 28 24 28 20 C26.68 19.34 25.36 18.68 24 18 C24 17.34 24 16.68 24 16 C23.34 16 22.68 16 22 16 C20.9926892 14.67218122 19.99387334 13.33790641 19 12 C17.26454073 10.46771271 17.26454073 10.46771271 15 9 C14.37480469 8.57203125 13.74960937 8.1440625 13.10546875 7.703125 C12.41066406 7.24421875 11.71585937 6.7853125 11 6.3125 C10.34 5.87550781 9.68 5.43851562 9 4.98828125 C6.77412961 3.70466251 6.77412961 3.70466251 3 4 C3 3.34 3 2.68 3 2 C2.01 1.67 1.02 1.34 0 1 C0 0.67 0 0.34 0 0 Z " fill="#BF34A3" transform="translate(292,106)"/>
<path d="M0 0 C13.52706658 -0.04656296 27.05411374 -0.08199008 40.58124447 -0.10362434 C46.86400646 -0.11401335 53.14671317 -0.12808228 59.42944336 -0.15087891 C65.50489906 -0.17278277 71.58030197 -0.18460524 77.65579414 -0.18975449 C79.96114494 -0.193419 82.26649321 -0.20057379 84.57182121 -0.21146011 C95.06162585 -0.25897659 105.49212221 -0.29200849 115.92797852 0.88720703 C116.97641261 1.00377309 116.97641261 1.00377309 118.04602718 1.12269402 C122.73920941 1.73920941 122.73920941 1.73920941 125 4 C121.72118627 5.02462929 120.03214341 5.00938257 116.6887207 4.03344727 C110.53785606 2.41826732 104.29481712 2.77363245 97.98046875 2.83984375 C96.63145886 2.84612568 95.28244374 2.85136193 93.9334259 2.85560608 C90.40495113 2.8688244 86.87665392 2.89322656 83.3482666 2.92095947 C77.68430814 2.96431671 72.02029912 2.99381204 66.35622597 3.0170002 C64.38248816 3.02720406 62.40879146 3.04455073 60.43510437 3.06199646 C58.64227776 3.07179283 58.64227776 3.07179283 56.81323242 3.08178711 C55.76036545 3.09004013 54.70749847 3.09829315 53.62272644 3.10679626 C51 3 51 3 48 2 C46.42038841 1.88551523 44.83666148 1.82377068 43.25317383 1.79467773 C42.29240433 1.77473251 41.33163483 1.75478729 40.3417511 1.73423767 C39.30729355 1.71752518 38.272836 1.70081268 37.20703125 1.68359375 C35.61528328 1.6524221 35.61528328 1.6524221 33.99137878 1.62062073 C30.59848563 1.55518762 27.2055145 1.49626907 23.8125 1.4375 C21.51366378 1.39430886 19.21483547 1.35069438 16.91601562 1.30664062 C11.2774264 1.1995126 5.63875944 1.09773449 0 1 C0 0.67 0 0.34 0 0 Z " fill="#8F32A3" transform="translate(167,102)"/>
<path d="M0 0 C1.26015092 0.9026613 2.51443575 1.81396648 3.75 2.75 C3.09 3.08 2.43 3.41 1.75 3.75 C0.76 3.09 -0.23 2.43 -1.25 1.75 C-2.11625 1.585 -2.9825 1.42 -3.875 1.25 C-4.65875 1.085 -5.4425 0.92 -6.25 0.75 C-6.745 -0.24 -6.745 -0.24 -7.25 -1.25 C-16.30808719 -5.01740263 -26.70510559 -4.66405843 -36.25 -3.25 C-39.25 -3.6875 -39.25 -3.6875 -41.25 -4.25 C-41.25 -3.59 -41.25 -2.93 -41.25 -2.25 C-43.81699653 1.60049479 -48.00378291 1.84506849 -52.25 2.75 C-52.25 3.74 -52.25 4.73 -52.25 5.75 C-52.971875 5.976875 -53.69375 6.20375 -54.4375 6.4375 C-59.1055998 8.61594658 -62.3038131 11.97299579 -64.25 16.75 C-64.91 16.75 -65.57 16.75 -66.25 16.75 C-63.67196563 7.58365557 -55.08851427 1.33698243 -47.25 -3.25 C-32.71875046 -11.20814797 -13.48563019 -8.80949836 0 0 Z " fill="#CF3696" transform="translate(242.25,177.25)"/>
<path d="M0 0 C0.33 0 0.66 0 1 0 C1 30.69 1 61.38 1 93 C0.67 93 0.34 93 0 93 C-0.97036348 80.21552137 -1.31222142 67.4363082 -1.55761719 54.61987305 C-1.62467488 51.20406091 -1.70272562 47.78861221 -1.78125 44.37304688 C-2.43788994 13.07443716 -2.43788994 13.07443716 0 0 Z " fill="#EA337E" transform="translate(75,169)"/>
<path d="M0 0 C39.6 0.33 79.2 0.66 120 1 C120 1.33 120 1.66 120 2 C118.87770996 2.01030746 117.75541992 2.02061493 116.59912109 2.03123474 C106.00593677 2.12912789 95.4128091 2.23187646 84.81971741 2.33933926 C79.37413482 2.39442759 73.92854673 2.44782447 68.48291016 2.49731445 C63.22442144 2.54516656 57.96599472 2.59751579 52.70758057 2.65294075 C50.70462596 2.6732702 48.70165442 2.69199825 46.69866943 2.70907402 C43.88629054 2.7333276 41.07402656 2.76335179 38.26171875 2.79467773 C37.43956375 2.8004332 36.61740875 2.80618866 35.77033997 2.81211853 C30.76778173 2.8751674 25.95608539 3.31455856 21 4 C13.39532609 4.49992799 7.05044475 3.99109777 0 1 C0 0.67 0 0.34 0 0 Z " fill="#FDD09B" transform="translate(143,354)"/>
<path d="M0 0 C1.43120682 0.10277504 1.43120682 0.10277504 2.8913269 0.20762634 C17.14258352 1.15182032 31.39455269 1.21755949 45.67201471 1.30332303 C49.21136911 1.32552372 52.75068526 1.35274204 56.29000854 1.37937927 C62.96175618 1.42885393 69.63352557 1.47395616 76.3053149 1.51740164 C83.91383537 1.56716627 91.5223174 1.62193604 99.13080049 1.67708123 C114.75383128 1.79020491 130.37689772 1.89718937 146 2 C146 2.33 146 2.66 146 3 C145.29155032 2.99907821 144.58310064 2.99815641 143.85318279 2.99720669 C126.62763748 2.97513757 109.40209575 2.95858165 92.17653942 2.94818783 C83.84644755 2.94302806 75.51636511 2.93599142 67.1862793 2.92456055 C59.9271239 2.91460398 52.66797533 2.90814424 45.4088133 2.90591151 C41.56394278 2.90460606 37.71909179 2.90153064 33.87422752 2.89426994 C30.2570518 2.88749441 26.63990371 2.88538618 23.02272224 2.88689232 C21.05878472 2.88648503 19.09485022 2.88109779 17.13092041 2.87557983 C15.96564316 2.8769545 14.80036591 2.87832916 13.59977722 2.87974548 C12.07743611 2.87836279 12.07743611 2.87836279 10.52434063 2.87695217 C7.87318594 2.89245776 7.87318594 2.89245776 5 4 C2.3125 2.0625 2.3125 2.0625 0 0 Z " fill="#FEF2EB" transform="translate(133,352)"/>
<path d="M0 0 C1.97005257 0.03753891 1.97005257 0.03753891 3.97990417 0.07583618 C7.42414411 0.14159015 10.86794557 0.22066176 14.31182861 0.30279541 C17.84508803 0.38460705 21.37859992 0.45342721 24.91210938 0.5234375 C31.81019155 0.66197777 38.707897 0.81463075 45.60546875 0.9765625 C45.60546875 1.3065625 45.60546875 1.6365625 45.60546875 1.9765625 C44.73556305 1.98869278 44.73556305 1.98869278 43.8480835 2.00106812 C37.81337512 2.08710942 31.77899538 2.18661294 25.74462891 2.29394531 C23.49240639 2.33223407 21.24012275 2.36708711 18.98779297 2.3984375 C15.75075428 2.44408987 12.51413639 2.50208465 9.27734375 2.5625 C7.76621002 2.57982681 7.76621002 2.57982681 6.22454834 2.59750366 C4.81353851 2.6273082 4.81353851 2.6273082 3.37402344 2.65771484 C2.54795593 2.67103851 1.72188843 2.68436218 0.87078857 2.6980896 C-1.61162447 3.00324949 -3.21244613 3.79074634 -5.39453125 4.9765625 C-13.28411651 6.49567519 -20.52965355 6.55314764 -27.39453125 1.9765625 C-18.15839328 0.24476025 -9.38054415 -0.24252148 0 0 Z " fill="#9E3BBA" transform="translate(169.39453125,102.0234375)"/>
<path d="M0 0 C0.66 0 1.32 0 2 0 C2.24403837 6.22297833 1.43600559 9.84599161 -2 15 C-2.68939809 17.32671854 -3.35466922 19.66067594 -4 22 C-5.32276386 26.06277471 -7.00968622 28.00968622 -10 31 C-10.309375 31.845625 -10.61875 32.69125 -10.9375 33.5625 C-12 36 -12 36 -14.375 37.375 C-17.12374118 39.07660168 -17.59972021 39.80178578 -19 42.5625 C-21 46 -21 46 -23.75 47.4375 C-24.4925 47.623125 -25.235 47.80875 -26 48 C-26.495 46.515 -26.495 46.515 -27 45 C-26.50371094 44.59910156 -26.00742187 44.19820313 -25.49609375 43.78515625 C-11.84770082 32.3640153 -4.4257085 17.00403792 0 0 Z " fill="#F33B78" transform="translate(353,292)"/>
<path d="M0 0 C5.46567393 5.46567393 4.21582787 16.41554587 4.23228264 23.73673725 C4.22643935 26.20346798 4.21106594 28.67003309 4.1953125 31.13671875 C4.19157487 32.86977473 4.18873145 34.60283286 4.18673706 36.33589172 C4.1791596 40.86170451 4.15956281 45.38738563 4.1373291 49.91314697 C4.11674271 54.5455955 4.10770818 59.17806563 4.09765625 63.81054688 C4.07631044 72.87375525 4.04224701 81.93686661 4 91 C3.67 91 3.34 91 3 91 C2.67 69.55 2.34 48.1 2 26 C1.67 26 1.34 26 1 26 C0.67 17.42 0.34 8.84 0 0 Z " fill="#DA279D" transform="translate(354,141)"/>
<path d="M0 0 C0.33 0 0.66 0 1 0 C1 9.24 1 18.48 1 28 C1.99 28.33 2.98 28.66 4 29 C3.34 29.99 2.68 30.98 2 32 C2.66 32.33 3.32 32.66 4 33 C3.4740625 33.928125 3.4740625 33.928125 2.9375 34.875 C1.58896565 39.37011449 2.34040134 43.40954987 3 48 C3.99 48 4.98 48 6 48 C5.42415568 50.38564077 4.77772405 52.66682784 4 55 C4.99 55.33 5.98 55.66 7 56 C6.01 56.99 5.02 57.98 4 59 C0.20161763 47.55420779 -1.32964524 36.54493897 -1.1875 24.5 C-1.18685547 23.46230469 -1.18621094 22.42460937 -1.18554688 21.35546875 C-1.14543034 14.19689638 -0.69154218 7.12391901 0 0 Z " fill="#ED7F7D" transform="translate(103,239)"/>
<path d="M0 0 C3.81725307 1.27241769 4.41262653 2.75304421 6.625 6.0625 C15.80031536 18.95123701 28.91761992 27.40576799 44 32 C42.68 32.66 41.36 33.32 40 34 C39.01 33.34 38.02 32.68 37 32 C36.505 32.99 36.505 32.99 36 34 C33.69 32.68 31.38 31.36 29 30 C29 29.01 29 28.02 29 27 C27.02 27 25.04 27 23 27 C23 26.01 23 25.02 23 24 C22.38125 23.855625 21.7625 23.71125 21.125 23.5625 C19 23 19 23 17 22 C17 21.34 17 20.68 17 20 C16.34 20 15.68 20 15 20 C13.44921875 18.42578125 13.44921875 18.42578125 11.6875 16.3125 C9.60184054 13.85393677 7.53349711 11.53349711 5.25 9.25 C3.24826551 7.24826551 1.51360513 5.38990284 0 3 C0 2.01 0 1.02 0 0 Z " fill="#F15657" transform="translate(153,253)"/>
<path d="M0 0 C0.33 0 0.66 0 1 0 C1.83554598 10.91955401 2.0873529 21.7098638 1.87890625 32.65625 C1.85451122 34.1803706 1.83067299 35.7045002 1.80735779 37.2286377 C1.74544732 41.18066921 1.6761335 45.13253492 1.60510254 49.08441162 C1.5335614 53.14083503 1.46926351 57.19737316 1.40429688 61.25390625 C1.27648978 69.16939811 1.14083581 77.08472926 1 85 C0.67 85 0.34 85 0 85 C-0.01030746 84.26687592 -0.02061493 83.53375183 -0.03123474 82.77841187 C-0.12995981 75.80725594 -0.23256755 68.83616987 -0.33933926 61.86513329 C-0.39407575 58.28283663 -0.44740611 54.70053149 -0.49731445 51.11816406 C-0.54569843 47.64917866 -0.59804805 44.18027211 -0.65294075 40.71138382 C-0.68269154 38.76981676 -0.70852587 36.82819091 -0.73423767 34.88656616 C-0.85422614 27.54591332 -1.21185994 20.2705753 -1.82899475 12.95425415 C-2.09950925 8.28089712 -1.4833923 4.45017689 0 0 Z " fill="#DE2D9E" transform="translate(328,147)"/>
<path d="M0 0 C2.47672014 3.83133443 2.49119409 7.89037925 2.6875 12.3125 C2.7280249 13.12759033 2.7685498 13.94268066 2.81030273 14.7824707 C3.22600239 25.20039311 2.61864891 35.60080638 2 46 C1.34 45.67 0.68 45.34 0 45 C-0.72604812 34.12224327 -1.1061889 23.27838392 -1.125 12.375 C-1.12951172 11.26648682 -1.13402344 10.15797363 -1.13867188 9.01586914 C-1.13577148 7.47274048 -1.13577148 7.47274048 -1.1328125 5.8984375 C-1.13168457 4.97724121 -1.13055664 4.05604492 -1.12939453 3.10693359 C-1 1 -1 1 0 0 Z " fill="#E23199" transform="translate(103,154)"/>
<path d="M0 0 C-9.41002278 4.59225513 -9.41002278 4.59225513 -14 4 C-14.66 5.32 -15.32 6.64 -16 8 C-16.721875 7.62875 -17.44375 7.2575 -18.1875 6.875 C-20.91130073 5.68287915 -20.91130073 5.68287915 -23.03515625 6.94140625 C-27.42454358 8.5086315 -31.62973285 8.16942063 -36.25 8.0625 C-42.22793539 7.94737571 -47.96392929 8.04999101 -53.89697266 8.80200195 C-57.15383907 9.10863286 -60.31073343 8.84663494 -63.5625 8.5625 C-64.78066406 8.46066406 -65.99882812 8.35882813 -67.25390625 8.25390625 C-68.16011719 8.17011719 -69.06632813 8.08632813 -70 8 C-70 7.67 -70 7.34 -70 7 C-68.38327393 6.92483154 -68.38327393 6.92483154 -66.73388672 6.84814453 C-62.66681586 6.65726001 -58.60021601 6.45753245 -54.53369141 6.25537109 C-52.78640904 6.16969168 -51.03901323 6.08628959 -49.29150391 6.00537109 C-29.56698065 5.14782251 -29.56698065 5.14782251 -10.375 0.8125 C-3.60381918 -1.37999905 -3.60381918 -1.37999905 0 0 Z " fill="#F28058" transform="translate(311,349)"/>
<path d="M0 0 C4.69350812 1.24239921 6.77517676 3.77007922 9.66796875 7.44140625 C10.93649295 9.13049223 10.93649295 9.13049223 13 10 C13.66666667 11.33333333 14.33333333 12.66666667 15 14 C15.66 14.33 16.32 14.66 17 15 C17 15.99 17 16.98 17 18 C17.66 18 18.32 18 19 18 C19.81752303 19.58074564 20.62881997 21.16471223 21.4375 22.75 C21.88996094 23.63171875 22.34242188 24.5134375 22.80859375 25.421875 C24.6960771 29.5062652 25.29532931 33.57064136 26 38 C26.66 38 27.32 38 28 38 C28.33 40.64 28.66 43.28 29 46 C28.01 46.495 28.01 46.495 27 47 C26.47212891 45.27716797 26.47212891 45.27716797 25.93359375 43.51953125 C21.42865274 29.17872489 16.04687835 17.38894155 5.453125 6.55859375 C3.43441978 4.45309707 1.67819657 2.37744514 0 0 Z " fill="#B733A4" transform="translate(326,93)"/>
<path d="M0 0 C-2.84415963 1.89610642 -5.3272013 2.96430261 -8.5 4.1875 C-22.14708037 9.82719707 -33.7426314 18.68108018 -42 31 C-42.66 30.34 -43.32 29.68 -44 29 C-42.55922954 25.63820226 -40.75249979 23.40843732 -38 21 C-37.34 21 -36.68 21 -36 21 C-35.690625 19.824375 -35.690625 19.824375 -35.375 18.625 C-34 16 -34 16 -30.875 14.6875 C-29.451875 14.3471875 -29.451875 14.3471875 -28 14 C-28 13.34 -28 12.68 -28 12 C-25.69921875 10.2734375 -25.69921875 10.2734375 -22.6875 8.375 C-21.20830078 7.42753906 -21.20830078 7.42753906 -19.69921875 6.4609375 C-17 5 -17 5 -14 5 C-14 4.34 -14 3.68 -14 3 C-12.68 3 -11.36 3 -10 3 C-9.67 2.34 -9.34 1.68 -9 1 C-5.72782326 -1.22040564 -3.74383599 -1.03995444 0 0 Z " fill="#8944B6" transform="translate(133,80)"/>
<path d="M0 0 C0.99 0.33 1.98 0.66 3 1 C1.61213905 3.77572191 -0.09718229 4.14650242 -2.875 5.5 C-9.27796193 8.88585945 -17.67313232 14.34626463 -21 21 C-21.66 21 -22.32 21 -23 21 C-23.226875 21.680625 -23.45375 22.36125 -23.6875 23.0625 C-25.35572357 26.79614324 -27.55729608 29.72163421 -30 33 C-30.66 32.67 -31.32 32.34 -32 32 C-29.49402115 25.25313386 -26.43907052 21.2949265 -20.98046875 16.69140625 C-18.84765248 14.91468798 -18.84765248 14.91468798 -16.4375 12.4375 C-12.57596567 8.57596567 -8.54612257 5.03074838 -4 2 C-2.68 2 -1.36 2 0 2 C0 1.34 0 0.68 0 0 Z " fill="#C838A1" transform="translate(183,149)"/>
<path d="M0 0 C1.5457783 0.04408875 3.0913679 0.09520259 4.63671875 0.15234375 C5.40951172 0.15427734 6.18230469 0.15621094 6.97851562 0.15820312 C9.24872888 0.24994863 11.15620539 0.40231661 13.32421875 1.08984375 C15.8671875 4.1484375 15.8671875 4.1484375 17.32421875 7.08984375 C14.32421875 7.08984375 14.32421875 7.08984375 11.82421875 5.08984375 C7.42010815 2.00696633 2.47023777 2.33826422 -2.67578125 3.08984375 C-7.57770137 5.40711508 -10.19134963 8.29843992 -12.67578125 13.08984375 C-13.54715691 16.39711048 -14.16797958 19.7089537 -14.67578125 23.08984375 C-17.07661287 18.81425915 -17.06145483 15.94933084 -16.67578125 11.08984375 C-15.17578125 9.33984375 -15.17578125 9.33984375 -13.67578125 8.08984375 C-13.67578125 6.76984375 -13.67578125 5.44984375 -13.67578125 4.08984375 C-12.02578125 4.08984375 -10.37578125 4.08984375 -8.67578125 4.08984375 C-8.67578125 3.42984375 -8.67578125 2.76984375 -8.67578125 2.08984375 C-8.03640625 1.94546875 -7.39703125 1.80109375 -6.73828125 1.65234375 C-0.74659837 0.01824842 -0.74659837 0.01824842 0 0 Z " fill="#BC2AAA" transform="translate(287.67578125,122.91015625)"/>
<path d="M0 0 C1.9375 0.75 1.9375 0.75 4 2 C4.75 4.125 4.75 4.125 5 6 C6.65 6.33 8.3 6.66 10 7 C10 7.66 10 8.32 10 9 C11.32 9.66 12.64 10.32 14 11 C14 11.66 14 12.32 14 13 C18.25300523 15.28210036 22.3534689 16.72448166 27 18 C27.33 18.33 27.66 18.66 28 19 C30.31952569 19.28101946 32.63885514 19.44782625 34.96875 19.62109375 C35.97421875 19.80865234 35.97421875 19.80865234 37 20 C37.495 20.99 37.495 20.99 38 22 C26.37638896 22.64575617 16.48911141 18.53419201 7.6640625 11.0078125 C4.0241127 7.52555006 1.66978613 4.81733299 0 0 Z " fill="#F3A769" transform="translate(112,306)"/>
<path d="M0 0 C0 3 0 3 -1.57421875 4.90234375 C-12.05950096 15 -12.05950096 15 -15 15 C-15 15.66 -15 16.32 -15 17 C-16.0725 17.598125 -17.145 18.19625 -18.25 18.8125 C-20.29827321 19.97359699 -22.10085351 21.08133348 -23.9375 22.5625 C-27.05230149 24.73342225 -30.42207006 25.74772452 -34 27 C-34 25.68 -34 24.36 -34 23 C-33.42894531 22.81566406 -32.85789063 22.63132812 -32.26953125 22.44140625 C-21.01760288 18.41647162 -11.82504886 11.42528412 -3.70703125 2.75 C-2 1 -2 1 0 0 Z " fill="#EF5065" transform="translate(274,260)"/>
<path d="M0 0 C0.33 0 0.66 0 1 0 C1.02578125 0.91136719 1.0515625 1.82273437 1.078125 2.76171875 C1.78896031 18.99784352 3.94346435 34.52952361 11.51171875 49.06640625 C12.72425796 51.45647698 13.52110052 53.38840149 14 56 C11.56736976 53.76653247 9.97812685 51.50669428 8.375 48.625 C7.94960937 47.87476563 7.52421875 47.12453125 7.0859375 46.3515625 C5.95259679 43.89734988 5.4232136 41.66154331 5 39 C4.01 38.67 3.02 38.34 2 38 C2.020625 36.96875 2.04125 35.9375 2.0625 34.875 C1.9887624 30.30326852 1.44452945 26.33358835 0 22 C-0.08178114 20.29983156 -0.10749501 18.59663703 -0.09765625 16.89453125 C-0.09443359 15.91162109 -0.09121094 14.92871094 -0.08789062 13.91601562 C-0.07951172 12.89185547 -0.07113281 11.86769531 -0.0625 10.8125 C-0.05798828 9.77673828 -0.05347656 8.74097656 -0.04882812 7.67382812 C-0.0370401 5.11582734 -0.02058515 2.55794267 0 0 Z " fill="#F38275" transform="translate(76,265)"/>
<path d="M0 0 C0.66 1.32 1.32 2.64 2 4 C2.66 4 3.32 4 4 4 C4.268125 5.258125 4.53625 6.51625 4.8125 7.8125 C5.55830964 11.02840789 5.55830964 11.02840789 7.5625 13.5625 C9.89501243 15.89501243 9.60922365 18.81796404 10 22 C10.65213539 23.34050052 11.31379969 24.67661368 12 26 C11.67 26.66 11.34 27.32 11 28 C11.33 28.99 11.66 29.98 12 31 C11.91343435 33.39870613 11.76001509 35.79537281 11.5625 38.1875 C11.46066406 39.45980469 11.35882813 40.73210937 11.25390625 42.04296875 C11.17011719 43.01878906 11.08632813 43.99460938 11 45 C10.67 45 10.34 45 10 45 C9.96261719 43.94941406 9.92523438 42.89882812 9.88671875 41.81640625 C9.54769804 34.02543175 8.92348021 27.28938238 6 20 C5.32485661 17.96112074 4.65870276 15.91924996 4 13.875 C2.53500411 9.46874314 0.92084234 5.22585315 -1 1 C-0.67 0.67 -0.34 0.34 0 0 Z " fill="#DA2892" transform="translate(279,178)"/>
<path d="M0 0 C7.65368332 1.12554166 13.06277522 5.38482932 19 10 C19.73992187 10.515625 20.47984375 11.03125 21.2421875 11.5625 C21.82226562 12.036875 22.40234375 12.51125 23 13 C23 13.66 23 14.32 23 15 C23.66 15 24.32 15 25 15 C26.76171875 17.08203125 26.76171875 17.08203125 28.6875 19.8125 C29.33074219 20.70582031 29.97398437 21.59914062 30.63671875 22.51953125 C31.08660156 23.33808594 31.53648437 24.15664062 32 25 C31.67 25.99 31.34 26.98 31 28 C30.19949219 26.96552734 30.19949219 26.96552734 29.3828125 25.91015625 C21.46776709 15.92733947 13.50304519 8.42231174 2.2734375 2.3125 C1.52320313 1.879375 0.77296875 1.44625 0 1 C0 0.67 0 0.34 0 0 Z " fill="#C5389F" transform="translate(246,150)"/>
<path d="M0 0 C1.4341333 0.17588427 2.87244103 0.31958576 4.3125 0.4375 C9.32328783 0.92909192 14.41122405 1.86949688 19 4 C19.495 5.485 19.495 5.485 20 7 C15.44136646 6.32775911 11.12454617 5.23276462 6.6875 4 C-1.83285919 1.73677959 -10.21735309 1.21739225 -19 1 C-19 0.34 -19 -0.32 -19 -1 C-12.10139569 -1.83825405 -6.67469604 -2.2668779 0 0 Z " fill="#C63CA9" transform="translate(226,143)"/>
<path d="M0 0 C0.495 0.99 0.495 0.99 1 2 C0.39115967 2.01981934 -0.21768066 2.03963867 -0.8449707 2.06005859 C-15.46414586 2.39497798 -15.46414586 2.39497798 -29.87890625 4.59765625 C-32.28930951 5.05487823 -34.55229553 5.06452648 -37 5 C-36.34 4.67 -35.68 4.34 -35 4 C-35 3.34 -35 2.68 -35 2 C-30.66061838 1.22113663 -26.3387003 0.69892384 -21.953125 0.28125 C-7.56685746 -1.79037253 -7.56685746 -1.79037253 0 0 Z " fill="#763ABB" transform="translate(170,75)"/>
<path d="M0 0 C0.33 0 0.66 0 1 0 C0.49856014 3.72498181 0.00017122 7.37437934 -1 11 C-1.144375 11.61875 -1.28875 12.2375 -1.4375 12.875 C-2 15 -2 15 -3.0625 17.625 C-4.31327339 22.12778419 -4.16513118 26.35797898 -4 31 C-7.42264438 25.86603342 -7.39298222 20.53445056 -6.4609375 14.5234375 C-4.47460938 5.47460938 -4.47460938 5.47460938 -2 3 C-1.34 3.33 -0.68 3.66 0 4 C0 2.68 0 1.36 0 0 Z " fill="#C636A9" transform="translate(110,130)"/>
<path d="M0 0 C0.33 0 0.66 0 1 0 C0.85691406 1.21558594 0.71382813 2.43117187 0.56640625 3.68359375 C-0.1130718 9.7988962 -0.58468035 15.92871142 -1.0625 22.0625 C-1.15337891 23.21427734 -1.24425781 24.36605469 -1.33789062 25.55273438 C-1.55987191 28.36839166 -1.78054538 31.18414485 -2 34 C-3.485 34.495 -3.485 34.495 -5 35 C-4.5166022 23.89457165 -3.67027792 12.99464496 -2 2 C-1.34 2 -0.68 2 0 2 C0 1.34 0 0.68 0 0 Z " fill="#C23194" transform="translate(79,133)"/>
<path d="M0 0 C1.05429199 0.06566162 2.10858398 0.13132324 3.19482422 0.19897461 C15.16834168 0.91866847 27.1338249 1.29459576 39.125 1.5625 C40.97005826 1.60585773 42.81511041 1.64947632 44.66015625 1.69335938 C49.10670651 1.7985644 53.55332317 1.90029441 58 2 C58 2.33 58 2.66 58 3 C57.38025803 2.99777939 56.76051605 2.99555878 56.12199402 2.99327087 C49.68216528 2.97117814 43.24234727 2.95607666 36.80249023 2.94506836 C34.39786339 2.94003402 31.99323962 2.93320614 29.58862305 2.92456055 C26.13589725 2.91245571 22.68321186 2.90676274 19.23046875 2.90234375 C18.15226364 2.89718246 17.07405853 2.89202118 15.96318054 2.88670349 C14.96236954 2.88662796 13.96155853 2.88655243 12.93041992 2.88647461 C12.04883713 2.884254 11.16725433 2.88203339 10.25895691 2.87974548 C7.83137713 2.90879133 7.83137713 2.90879133 5 4 C2.3125 2.0625 2.3125 2.0625 0 0 Z " fill="#FDEFD4" transform="translate(133,352)"/>
<path d="M0 0 C0.99 0.33 1.98 0.66 3 1 C0.22920113 4.80984844 -3.62868145 5.06840752 -8 6 C-8 6.99 -8 7.98 -8 9 C-8.721875 9.226875 -9.44375 9.45375 -10.1875 9.6875 C-14.8555998 11.86594658 -18.0538131 15.22299579 -20 20 C-20.66 20 -21.32 20 -22 20 C-20.04662521 13.0546674 -13.88144471 6.92096314 -8 3 C-4.8125 1.8125 -4.8125 1.8125 -2 1 C-1.34 0.67 -0.68 0.34 0 0 Z " fill="#E02D96" transform="translate(198,174)"/>
<path d="M0 0 C11.0465678 1.34714241 18.58025472 7.18512035 26 15 C25.67 15.66 25.34 16.32 25 17 C21.50050023 15.83350008 21.11534567 14.87687011 19 12 C17.26454073 10.46771271 17.26454073 10.46771271 15 9 C14.37480469 8.57203125 13.74960937 8.1440625 13.10546875 7.703125 C12.41066406 7.24421875 11.71585937 6.7853125 11 6.3125 C10.34 5.87550781 9.68 5.43851562 9 4.98828125 C6.77412961 3.70466251 6.77412961 3.70466251 3 4 C3 3.34 3 2.68 3 2 C2.01 1.67 1.02 1.34 0 1 C0 0.67 0 0.34 0 0 Z " fill="#AE32AB" transform="translate(292,106)"/>
<path d="M0 0 C4.27137254 0.10967098 8.54184766 0.2403499 12.8125 0.375 C14.63491211 0.42140625 14.63491211 0.42140625 16.49414062 0.46875 C18.23920898 0.52675781 18.23920898 0.52675781 20.01953125 0.5859375 C21.62985229 0.63306885 21.62985229 0.63306885 23.27270508 0.68115234 C26 1 26 1 29 3 C18.91071621 4.55219751 9.55064996 5.05179089 0 1 C0 0.67 0 0.34 0 0 Z " fill="#FABC52" transform="translate(143,354)"/>
<path d="M0 0 C0.733396 0.08620605 1.46679199 0.17241211 2.22241211 0.26123047 C5.84086553 0.74936497 8.93041732 1.32004827 12.0625 3.25 C6.64337018 4.10565208 2.52929469 4.06324218 -2.9375 3.25 C-5.91372948 3.00408917 -8.89285004 2.8433793 -11.875 2.6875 C-12.65423828 2.64431641 -13.43347656 2.60113281 -14.23632812 2.55664062 C-16.13657117 2.45171923 -18.03701669 2.3504755 -19.9375 2.25 C-19.9375 1.92 -19.9375 1.59 -19.9375 1.25 C-13.11088129 -0.66676119 -6.97413666 -0.83525279 0 0 Z " fill="#9B3CB7" transform="translate(282.9375,74.75)"/>
<path d="M0 0 C1 3 1 3 -0.125 6.5 C-2.18497001 10.34527735 -3.37564791 10.87842805 -7 13 C-8.07576056 14.67101527 -8.07576056 14.67101527 -9 16.5625 C-11 20 -11 20 -13.75 21.4375 C-14.4925 21.623125 -15.235 21.80875 -16 22 C-16.33 21.01 -16.66 20.02 -17 19 C-16.50371094 18.59910156 -16.00742187 18.19820313 -15.49609375 17.78515625 C-9.26561173 12.57141323 -4.49600288 6.74400432 0 0 Z " fill="#F4576C" transform="translate(343,318)"/>
<path d="M0 0 C0.33 0 0.66 0 1 0 C1 9.24 1 18.48 1 28 C1.99 28.33 2.98 28.66 4 29 C3.34 29.99 2.68 30.98 2 32 C2.66 32.33 3.32 32.66 4 33 C3.01 34.32 2.02 35.64 1 37 C-2.44437984 33.55562016 -1.08149649 22.70459359 -1.125 18 C-1.07714645 11.97045279 -0.5955108 5.99764453 0 0 Z " fill="#F5546B" transform="translate(103,239)"/>
<path d="M0 0 C0.99 0 1.98 0 3 0 C3.33 1.32 3.66 2.64 4 4 C4.66 4 5.32 4 6 4 C6.97169033 9.7907491 7.38283909 14.44004212 5 20 C2.875 21.4375 2.875 21.4375 1 22 C1.5259375 20.2984375 1.5259375 20.2984375 2.0625 18.5625 C3.66392557 12.15679773 2.87847217 5.94884248 0 0 Z " fill="#C0249F" transform="translate(304,130)"/>
<path d="M0 0 C0 0.66 0 1.32 0 2 C-0.90363281 2.04898438 -1.80726563 2.09796875 -2.73828125 2.1484375 C-3.91777344 2.22320312 -5.09726563 2.29796875 -6.3125 2.375 C-8.07013672 2.47941406 -8.07013672 2.47941406 -9.86328125 2.5859375 C-13.15699887 2.78613747 -13.15699887 2.78613747 -16 5 C-19.83103042 4.68074747 -21.76680553 4.15546298 -25 2 C-16.58481953 0.47983837 -8.5511272 -0.27733386 0 0 Z " fill="#A04EB9" transform="translate(167,102)"/>
<path d="M0 0 C0.33 0.66 0.66 1.32 1 2 C-1.56213554 2.64730804 -4.12468485 3.29289288 -6.6875 3.9375 C-7.40873047 4.11990234 -8.12996094 4.30230469 -8.87304688 4.49023438 C-12.56827248 5.41825907 -16.25345469 6.29798461 -20 7 C-14.20260806 0.32421534 -8.37940053 -0.29401405 0 0 Z " fill="#C331A7" transform="translate(206,143)"/>
<path d="M0 0 C0.66 0 1.32 0 2 0 C2.35482211 7.21471629 1.1591338 13.12418702 -1 20 C-1.66 20 -2.32 20 -3 20 C-3.33 18.02 -3.66 16.04 -4 14 C-3.34 14 -2.68 14 -2 14 C-2.04125 12.7625 -2.0825 11.525 -2.125 10.25 C-2.13670236 6.93823352 -1.76324702 4.8652764 0 2 C0 1.34 0 0.68 0 0 Z " fill="#EF368F" transform="translate(146,187)"/>
<path d="M0 0 C0.66 0.33 1.32 0.66 2 1 C-7.2872084 7.87941363 -16.41350651 11.49733217 -28 12 C-25.18627887 10.12418591 -23.93491205 9.64714295 -20.75 9.0625 C-16.49255919 8.18474841 -12.94301107 6.81985126 -9 5 C-7.576875 4.4740625 -7.576875 4.4740625 -6.125 3.9375 C-3.83214762 3.19580688 -3.83214762 3.19580688 -3 1 C-2.01 0.67 -1.02 0.34 0 0 Z " fill="#EE615F" transform="translate(310,316)"/>
<path d="M0 0 C0.33 0 0.66 0 1 0 C1.07347656 1.37285156 1.07347656 1.37285156 1.1484375 2.7734375 C1.22320312 3.96195312 1.29796875 5.15046875 1.375 6.375 C1.44460938 7.55835938 1.51421875 8.74171875 1.5859375 9.9609375 C1.70217346 13.10562319 1.70217346 13.10562319 4 15 C3.71125 15.680625 3.4225 16.36125 3.125 17.0625 C1.87402645 20.32893093 0.92552045 23.62846123 0 27 C-0.33 27 -0.66 27 -1 27 C-1.15178302 17.94361322 -0.69037426 9.02417777 0 0 Z " fill="#F23E85" transform="translate(355,264)"/>
<path d="M0 0 C7.26 0 14.52 0 22 0 C22.33 0.66 22.66 1.32 23 2 C20.17588235 2.94137255 18.47081968 3.11725382 15.55078125 3.09765625 C14.70322266 3.09443359 13.85566406 3.09121094 12.98242188 3.08789062 C12.10134766 3.07951172 11.22027344 3.07113281 10.3125 3.0625 C9.41982422 3.05798828 8.52714844 3.05347656 7.60742188 3.04882812 C5.40488013 3.03704983 3.20247401 3.02060164 1 3 C0.67 2.01 0.34 1.02 0 0 Z " fill="#EE495F" transform="translate(205,259)"/>
<path d="M0 0 C4.69350812 1.24239921 6.77517676 3.77007922 9.66796875 7.44140625 C10.93649295 9.13049223 10.93649295 9.13049223 13 10 C13.66666667 11.33333333 14.33333333 12.66666667 15 14 C15.66 14.33 16.32 14.66 17 15 C17 15.99 17 16.98 17 18 C17.66 18 18.32 18 19 18 C19 18.66 19 19.32 19 20 C15.53387025 18.56833771 13.92172064 16.90064963 11.75 13.875 C8.6444677 9.71183522 5.25363273 6.11732617 1.50390625 2.53125 C0 1 0 1 0 0 Z " fill="#AC2FA1" transform="translate(326,93)"/>
<path d="M0 0 C1.9375 0.75 1.9375 0.75 4 2 C4.75 4.125 4.75 4.125 5 6 C6.65 6.33 8.3 6.66 10 7 C10 7.66 10 8.32 10 9 C11.32 9.66 12.64 10.32 14 11 C14 11.99 14 12.98 14 14 C8.73152512 12.56314321 5.4072287 9.09218704 2 5 C0.5625 2.0625 0.5625 2.0625 0 0 Z " fill="#F5905E" transform="translate(112,306)"/>
<path d="M0 0 C1.27230469 0.01804687 2.54460937 0.03609375 3.85546875 0.0546875 C5.31919922 0.08949219 5.31919922 0.08949219 6.8125 0.125 C6.4825 0.785 6.1525 1.445 5.8125 2.125 C3.23046875 2.828125 3.23046875 2.828125 0 3.375 C-1.58748047 3.66117187 -1.58748047 3.66117187 -3.20703125 3.953125 C-6.30946615 4.13203343 -7.62176158 3.78993438 -10.1875 2.125 C-6.4507157 -0.36618953 -4.44298181 -0.0815226 0 0 Z " fill="#A02FC5" transform="translate(161.1875,103.875)"/>
<path d="M0 0 C2.90920997 -0.21984713 5.48622734 -0.23285121 8.375 -0.0625 C9.14328125 -0.05154297 9.9115625 -0.04058594 10.703125 -0.02929688 C12.9659453 0.090108 14.85053869 0.27593004 17 1 C19.5390625 4.06640625 19.5390625 4.06640625 21 7 C18 7 18 7 15.6875 5 C10.71483389 1.38814021 3.82143869 2.71291535 -2 3 C-1.34 2.01 -0.68 1.02 0 0 Z " fill="#BC40AA" transform="translate(284,123)"/>
<path d="M0 0 C0 0.99 0 1.98 0 3 C-0.66 3 -1.32 3 -2 3 C-2.226875 3.680625 -2.45375 4.36125 -2.6875 5.0625 C-4.35572357 8.79614324 -6.55729608 11.72163421 -9 15 C-9.66 14.67 -10.32 14.34 -11 14 C-5.8 0 -5.8 0 0 0 Z " fill="#DA369B" transform="translate(162,167)"/>
<path d="M0 0 C8.52080037 0.39728885 16.72049367 0.78227509 25 3 C24.67 3.66 24.34 4.32 24 5 C17.55674855 4.37645954 11.32948187 3.34134715 5 2 C3.33369233 1.66487667 1.66711987 1.33105926 0 1 C0 0.67 0 0.34 0 0 Z " fill="#A343A5" transform="translate(267,102)"/>
<path d="M0 0 C0.99 0 1.98 0 3 0 C1.50921954 3.39094623 -0.4530955 5.82826712 -2.9375 8.5625 C-3.62714844 9.32691406 -4.31679687 10.09132813 -5.02734375 10.87890625 C-6.65153277 12.62531147 -8.29797436 14.32998738 -10 16 C-10 12.29448515 -9.52868109 10.59689801 -7.0625 7.8125 C-5 6 -5 6 -3 6 C-2.690625 5.195625 -2.38125 4.39125 -2.0625 3.5625 C-1 1 -1 1 0 0 Z " fill="#9938B4" transform="translate(100,95)"/>
<path d="M0 0 C1.98 0.99 1.98 0.99 4 2 C4 2.66 4 3.32 4 4 C4.66 4 5.32 4 6 4 C7.76171875 6.08203125 7.76171875 6.08203125 9.6875 8.8125 C10.33074219 9.70582031 10.97398437 10.59914062 11.63671875 11.51953125 C12.31154297 12.74736328 12.31154297 12.74736328 13 14 C12.67 14.99 12.34 15.98 12 17 C10.55524697 15.29779622 9.1195136 13.58793493 7.6875 11.875 C6.88699219 10.92367187 6.08648437 9.97234375 5.26171875 8.9921875 C3.07635278 6.10101249 1.50678822 3.28665134 0 0 Z " fill="#D22D99" transform="translate(265,161)"/>
<path d="M0 0 C0.33 0 0.66 0 1 0 C1.31885957 4.7899793 0.54899715 7.59008775 -1.8125 11.75 C-2.33457031 12.69359375 -2.85664063 13.6371875 -3.39453125 14.609375 C-5 17 -5 17 -8 19 C-6.78315531 14.8424473 -5.15192501 11.42990421 -2.953125 7.74609375 C-1.60363374 5.27387001 -0.78882676 2.69515808 0 0 Z " fill="#F2426A" transform="translate(324,293)"/>
<path d="M0 0 C5 1.66666667 10 3.33333333 15 5 C13.02 5.99 13.02 5.99 11 7 C10.01 6.34 9.02 5.68 8 5 C7.67 5.66 7.34 6.32 7 7 C3.535 5.02 3.535 5.02 0 3 C0 2.01 0 1.02 0 0 Z " fill="#F45E3D" transform="translate(182,280)"/>
<path d="M0 0 C11.93006514 0.23144747 11.93006514 0.23144747 16.15234375 1.23046875 C16.48234375 1.89046875 16.81234375 2.55046875 17.15234375 3.23046875 C10.05506947 3.33854907 3.19139419 3.16900881 -3.84765625 2.23046875 C-1.84765625 0.23046875 -1.84765625 0.23046875 0 0 Z " fill="#8947CF" transform="translate(153.84765625,73.76953125)"/>
<path d="M0 0 C-3.62535821 3.17218843 -7.51150278 4.42902597 -12 6 C-12 4.68 -12 3.36 -12 2 C-10.75579353 1.4654744 -9.50429064 0.94791389 -8.25 0.4375 C-7.55390625 0.14746094 -6.8578125 -0.14257812 -6.140625 -0.44140625 C-3.69987216 -1.07831803 -2.3596345 -0.80248831 0 0 Z " fill="#F45650" transform="translate(252,281)"/>
<path d="M0 0 C0.76376953 -0.01224609 1.52753906 -0.02449219 2.31445312 -0.03710938 C9.23835851 -0.05518746 9.23835851 -0.05518746 12.5625 2.1875 C10.68304688 2.17009766 10.68304688 2.17009766 8.765625 2.15234375 C7.11458483 2.14296284 5.46354304 2.13386296 3.8125 2.125 C2.9875 2.11662109 2.1625 2.10824219 1.3125 2.09960938 C0.51328125 2.09638672 -0.2859375 2.09316406 -1.109375 2.08984375 C-1.8425293 2.08460693 -2.57568359 2.07937012 -3.33105469 2.07397461 C-5.47239935 2.10834364 -5.47239935 2.10834364 -7.58300781 2.81860352 C-8.50098145 3.00120728 -8.50098145 3.00120728 -9.4375 3.1875 C-10.0975 2.5275 -10.7575 1.8675 -11.4375 1.1875 C-7.60964707 -0.08845098 -3.9878343 0.00334831 0 0 Z " fill="#E521A1" transform="translate(215.4375,170.8125)"/>
<path d="M0 0 C0 0.33 0 0.66 0 1 C-5.94 1 -11.88 1 -18 1 C-18 0.34 -18 -0.32 -18 -1 C-5.33029613 -2.51708428 -5.33029613 -2.51708428 0 0 Z " fill="#B62FA2" transform="translate(225,143)"/>
<path d="M0 0 C0 0.99 0 1.98 0 3 C-1.63260714 4.37482707 -3.30225062 5.70647667 -5 7 C-5.99 8.485 -5.99 8.485 -7 10 C-9.97 9.505 -9.97 9.505 -13 9 C-10.15118272 6.82418313 -7.23915912 4.79062001 -4.25 2.8125 C-3.45078125 2.28269531 -2.6515625 1.75289063 -1.828125 1.20703125 C-1.22484375 0.80871094 -0.6215625 0.41039062 0 0 Z " fill="#EF6A66" transform="translate(325,338)"/>
<path d="M0 0 C0.33 0 0.66 0 1 0 C1.33 7.92 1.66 15.84 2 24 C1.34 24.33 0.68 24.66 0 25 C-1.19445794 19.60281966 -0.92044183 14.58875569 -0.5625 9.125 C-0.51029297 8.24585938 -0.45808594 7.36671875 -0.40429688 6.4609375 C-0.27552439 4.30692501 -0.13858537 2.15340341 0 0 Z " fill="#E12E79" transform="translate(288,207)"/>
<path d="M0 0 C0.33 0.99 0.66 1.98 1 3 C0.57847656 3.38671875 0.15695313 3.7734375 -0.27734375 4.171875 C-1.09912109 4.95304687 -1.09912109 4.95304687 -1.9375 5.75 C-2.48277344 6.26046875 -3.02804688 6.7709375 -3.58984375 7.296875 C-5.16044692 9.19378076 -5.58731286 10.59701161 -6 13 C-6.66 13 -7.32 13 -8 13 C-7.46760392 8.47463334 -5.72876727 5.61160373 -3 2 C-2.01 1.34 -1.02 0.68 0 0 Z " fill="#AD33AF" transform="translate(116,121)"/>
<path d="M0 0 C4.97209562 1.76429199 9.43438061 4.3939166 14 7 C13.67 7.66 13.34 8.32 13 9 C12.34 9 11.68 9 11 9 C11 8.34 11 7.68 11 7 C10.071875 6.7834375 10.071875 6.7834375 9.125 6.5625 C7 6 7 6 5 5 C5.33 5.99 5.66 6.98 6 8 C5.01 7.67 4.02 7.34 3 7 C1.875 4.5625 1.875 4.5625 1 2 C0.67 1.34 0.34 0.68 0 0 Z " fill="#F6B96C" transform="translate(108,340)"/>
<path d="M0 0 C-0.28241641 1.46015291 -0.57626614 2.91809793 -0.875 4.375 C-1.03742188 5.18710938 -1.19984375 5.99921875 -1.3671875 6.8359375 C-2 9 -2 9 -4 11 C-5.23666047 7.42742531 -4.89093449 4.64473199 -4 1 C-2 0 -2 0 0 0 Z " fill="#B62EAF" transform="translate(84,122)"/>
<path d="M0 0 C2.00256574 1.14134327 4.00199797 2.28818633 6 3.4375 C7.11375 4.07558594 8.2275 4.71367187 9.375 5.37109375 C10.24125 5.90863281 11.1075 6.44617188 12 7 C12 7.33 12 7.66 12 8 C9.69 8 7.38 8 5 8 C5 7.01 5 6.02 5 5 C3.68 4.67 2.36 4.34 1 4 C0.67 2.68 0.34 1.36 0 0 Z " fill="#F26656" transform="translate(171,272)"/>
<path d="M0 0 C2.72211058 2.72211058 2.68419436 4.86595191 3.046875 8.6015625 C2.97447337 12.30611236 1.72716709 14.75292587 0 18 C-0.5625 16.0625 -0.5625 16.0625 -1 14 C-0.67 13.67 -0.34 13.34 0 13 C0.07258946 10.81360547 0.08373783 8.62499611 0.0625 6.4375 C0.05347656 5.23996094 0.04445313 4.04242188 0.03515625 2.80859375 C0.02355469 1.88175781 0.01195312 0.95492187 0 0 Z " fill="#F1C0EA" transform="translate(305,133)"/>
<path d="M0 0 C3.67024761 1.22341587 4.3606842 2.83514059 6.1484375 6.14453125 C7.18118719 8.39478859 7.70252005 10.54579041 8 13 C4.3260401 9.62392874 1.94593446 6.60879214 0 2 C0 1.34 0 0.68 0 0 Z " fill="#F1416F" transform="translate(174,234)"/>
<path d="M0 0 C2.475 0.495 2.475 0.495 5 1 C4.42415568 3.38564077 3.77772405 5.66682784 3 8 C3.99 8.33 4.98 8.66 6 9 C5.01 9.99 4.02 10.98 3 12 C2.49663233 10.37604003 1.99741024 8.75079459 1.5 7.125 C1.2215625 6.22007812 0.943125 5.31515625 0.65625 4.3828125 C0 2 0 2 0 0 Z " fill="#F57861" transform="translate(104,286)"/>
<path d="M0 0 C0.99 1.32 1.98 2.64 3 4 C2.67 4.66 2.34 5.32 2 6 C2.33 6.99 2.66 7.98 3 9 C2.91343435 11.39870613 2.76001509 13.79537281 2.5625 16.1875 C2.46066406 17.45980469 2.35882813 18.73210937 2.25390625 20.04296875 C2.17011719 21.01878906 2.08632813 21.99460938 2 23 C1.67 23 1.34 23 1 23 C0.67 15.41 0.34 7.82 0 0 Z " fill="#F2258C" transform="translate(288,200)"/>
<path d="M0 0 C-2.43414237 1.62276158 -4.31319446 2.61744792 -7 3.625 C-7.680625 3.88539062 -8.36125 4.14578125 -9.0625 4.4140625 C-11 5 -11 5 -14 5 C-14 4.34 -14 3.68 -14 3 C-12.68 3 -11.36 3 -10 3 C-9.67 2.34 -9.34 1.68 -9 1 C-5.72782326 -1.22040564 -3.74383599 -1.03995444 0 0 Z " fill="#803CC2" transform="translate(133,80)"/>
<path d="M0 0 C-2.97 1.65 -5.94 3.3 -9 5 C-9.99 3.68 -10.98 2.36 -12 1 C-10.56496445 0.63597631 -9.12683494 0.28413409 -7.6875 -0.0625 C-6.88699219 -0.25972656 -6.08648437 -0.45695312 -5.26171875 -0.66015625 C-3 -1 -3 -1 0 0 Z " fill="#F35849" transform="translate(238,286)"/>
<path d="M0 0 C0.33 0 0.66 0 1 0 C1.33 5.61 1.66 11.22 2 17 C1.01 17.33 0.02 17.66 -1 18 C-0.505 9.09 -0.505 9.09 0 0 Z " fill="#E0219D" transform="translate(75,150)"/>
<path d="M0 0 C0.33 0 0.66 0 1 0 C1.09796875 0.65226563 1.1959375 1.30453125 1.296875 1.9765625 C2.26486738 7.63431108 3.43491083 11.48422039 7 16 C4.625 15.8125 4.625 15.8125 2 15 C-0.96420721 10.62426555 -0.17733749 5.07382262 0 0 Z " fill="#C039A3" transform="translate(273,139)"/>
<path d="M0 0 C0.66 0.33 1.32 0.66 2 1 C1.731875 1.495 1.46375 1.99 1.1875 2.5 C-0.17402757 5.36637383 -1.19429797 8.29199242 -2.21875 11.29296875 C-3 13 -3 13 -5 14 C-4.44894091 10.0507432 -3.61064629 6.65079826 -2 3 C-1.34 3 -0.68 3 0 3 C0 2.01 0 1.02 0 0 Z " fill="#F53174" transform="translate(285,238)"/>
<path d="M0 0 C0.66 0.33 1.32 0.66 2 1 C-1.3 4.63 -4.6 8.26 -8 12 C-8.66 11.67 -9.32 11.34 -10 11 C-9.34 10.01 -8.68 9.02 -8 8 C-7.34 8 -6.68 8 -6 8 C-5.7525 7.4225 -5.505 6.845 -5.25 6.25 C-3.83316683 3.6997003 -2.12372463 1.98214299 0 0 Z " fill="#FDDFF4" transform="translate(168,162)"/>
<path d="M0 0 C3.2626876 3.08632611 6.02235218 5.93483504 8 10 C7.67 10.66 7.34 11.32 7 12 C6.67 11.01 6.34 10.02 6 9 C5.34 9 4.68 9 4 9 C2 6 2 6 2 3 C1.34 3 0.68 3 0 3 C0 2.01 0 1.02 0 0 Z " fill="#DC399B" transform="translate(250,185)"/>
<path d="M0 0 C0.99 0 1.98 0 3 0 C1.55049545 3.7910119 -0.15172566 7.3874638 -2 11 C-2.66 10.67 -3.32 10.34 -4 10 C-2.66666667 6.66666667 -1.33333333 3.33333333 0 0 Z " fill="#A838B1" transform="translate(87,111)"/>
<path d="M0 0 C3.53233755 1.17744585 3.86308075 1.95605641 5.6875 5.0625 C6.12449219 5.79597656 6.56148437 6.52945312 7.01171875 7.28515625 C7.33785156 7.85105469 7.66398438 8.41695313 8 9 C4.11980141 7.74155722 2.0588158 6.57583797 0 3 C0 2.01 0 1.02 0 0 Z " fill="#F15966" transform="translate(153,253)"/>
<path d="M0 0 C1.875 0.25 1.875 0.25 4 1 C4.309375 1.639375 4.61875 2.27875 4.9375 2.9375 C6.38875376 5.75463965 8.09933057 5.95873405 11 7 C11.33 7.66 11.66 8.32 12 9 C7.09198451 7.51272258 3.59508707 4.55364515 0 1 C0 0.67 0 0.34 0 0 Z " fill="#EB4E6B" transform="translate(182,247)"/>
<path d="M0 0 C1.46015291 0.28241641 2.91809793 0.57626614 4.375 0.875 C5.18710938 1.03742188 5.99921875 1.19984375 6.8359375 1.3671875 C9 2 9 2 11 4 C9.4375 4.75 9.4375 4.75 7 5 C4.49713591 3.86915563 2.32992278 2.47860484 0 1 C0 0.67 0 0.34 0 0 Z " fill="#F4C072" transform="translate(122,348)"/>
<path d="M0 0 C0.99 0 1.98 0 3 0 C1.68938409 4.23429756 0.05643741 8.07407404 -2 12 C-3.12377697 8.69564916 -2.89554742 6.9493138 -1.5625 3.75 C-1.27503906 3.04359375 -0.98757812 2.3371875 -0.69140625 1.609375 C-0.46324219 1.07828125 -0.23507813 0.5471875 0 0 Z " fill="#F4D3F0" transform="translate(83,125)"/>
<path d="M0 0 C5.66153846 1.47692308 5.66153846 1.47692308 7.375 4.125 C7.684375 5.053125 7.684375 5.053125 8 6 C5 6 5 6 2.3125 3.5625 C0 1 0 1 0 0 Z " fill="#A834AF" transform="translate(319,87)"/>
<path d="M0 0 C0.66 0 1.32 0 2 0 C2 2.31 2 4.62 2 7 C1.34 7 0.68 7 0 7 C-0.33 7.99 -0.66 8.98 -1 10 C-1.91078492 7.44980222 -2.17843392 6.40445022 -1.0625 3.875 C-0.711875 3.25625 -0.36125 2.6375 0 2 C0 1.34 0 0.68 0 0 Z " fill="#F1218C" transform="translate(146,187)"/>
<path d="M0 0 C0.33 0 0.66 0 1 0 C0.88637738 1.4800841 0.75877092 2.95910074 0.625 4.4375 C0.52058594 5.67306641 0.52058594 5.67306641 0.4140625 6.93359375 C0.27742188 7.61550781 0.14078125 8.29742187 0 9 C-0.99 9.495 -0.99 9.495 -2 10 C-2.98120464 6.94736336 -2.98120464 5.05263664 -2 2 C-1.34 2 -0.68 2 0 2 C0 1.34 0 0.68 0 0 Z " fill="#BF29A7" transform="translate(79,133)"/>
<path d="M0 0 C0.66 0 1.32 0 2 0 C2 1.32 2 2.64 2 4 C2.99 4.33 3.98 4.66 5 5 C4.67 7.64 4.34 10.28 4 13 C2.42445965 10.11371599 1.53723627 7.46657616 0.875 4.25 C0.70742188 3.45078125 0.53984375 2.6515625 0.3671875 1.828125 C0.24601562 1.22484375 0.12484375 0.6215625 0 0 Z " fill="#DF3B97" transform="translate(284,193)"/>
<path d="M0 0 C0.66 0.33 1.32 0.66 2 1 C-2.82142857 7.29464286 -2.82142857 7.29464286 -7 8 C-6.02133662 6.85373678 -5.04205413 5.70800212 -4.0625 4.5625 C-3.51722656 3.92441406 -2.97195312 3.28632812 -2.41015625 2.62890625 C-1.63204305 1.73008851 -0.84063472 0.84063472 0 0 Z " fill="#A240AB" transform="translate(121,114)"/>
<path d="M0 0 C3.3 0.33 6.6 0.66 10 1 C8.515 2.485 8.515 2.485 7 4 C4.08482708 2.92598892 2.22189824 2.22189824 0 0 Z " fill="#F9BF5F" transform="translate(133,352)"/>
<path d="M0 0 C2.31 0.66 4.62 1.32 7 2 C7.33 3.32 7.66 4.64 8 6 C4.08597051 4.73058503 2.20927127 3.48832306 0 0 Z " fill="#F09A61" transform="translate(118,314)"/>
<path d="M0 0 C-0.11362262 1.4800841 -0.24122908 2.95910074 -0.375 4.4375 C-0.47941406 5.67306641 -0.47941406 5.67306641 -0.5859375 6.93359375 C-0.72257812 7.61550781 -0.85921875 8.29742187 -1 9 C-1.99 9.495 -1.99 9.495 -3 10 C-3 7.03 -3 4.06 -3 1 C-1 0 -1 0 0 0 Z " fill="#F92182" transform="translate(359,263)"/>
<path d="M0 0 C0 3 0 3 -1.3125 4.38671875 C-2.875 5.59114583 -4.4375 6.79557292 -6 8 C-5.65120368 4.74456771 -4.97866739 3.98126893 -2.4375 1.75 C-1.633125 1.1725 -0.82875 0.595 0 0 Z " fill="#F23D68" transform="translate(274,260)"/>
<path d="M0 0 C2.31 1.98 4.62 3.96 7 6 C6.67 6.66 6.34 7.32 6 8 C2.57701423 6.85900474 1.85241234 5.99914379 0 3 C0 2.01 0 1.02 0 0 Z " fill="#AD2B99" transform="translate(311,115)"/>
<path d="M0 0 C4.95 0.99 4.95 0.99 10 2 C10 2.66 10 3.32 10 4 C3.375 3.375 3.375 3.375 0 0 Z " fill="#EF5469" transform="translate(194,256)"/>
<path d="M0 0 C0.66 0 1.32 0 2 0 C2.33 2.64 2.66 5.28 3 8 C2.01 8.495 2.01 8.495 1 9 C0.67 6.03 0.34 3.06 0 0 Z " fill="#C122A1" transform="translate(352,131)"/>
<path d="M0 0 C0.66 0.33 1.32 0.66 2 1 C1.67 2.98 1.34 4.96 1 7 C0.01 7.33 -0.98 7.66 -2 8 C-1.125 2.25 -1.125 2.25 0 0 Z " fill="#F04977" transform="translate(346,312)"/>
<path d="M0 0 C0.66 0.66 1.32 1.32 2 2 C0.35 4.31 -1.3 6.62 -3 9 C-3.33 8.34 -3.66 7.68 -4 7 C-3.22265625 5.2734375 -3.22265625 5.2734375 -2.0625 3.375 C-1.381875 2.26125 -0.70125 1.1475 0 0 Z " fill="#ED5270" transform="translate(320,303)"/>
<path d="M0 0 C0.598125 0.20625 1.19625 0.4125 1.8125 0.625 C-2.9375 4.625 -2.9375 4.625 -5.1875 4.625 C-5.1875 3.635 -5.1875 2.645 -5.1875 1.625 C-2.1875 -0.375 -2.1875 -0.375 0 0 Z " fill="#F04978" transform="translate(244.1875,251.375)"/>
<path d="M0 0 C0.99 0.33 1.98 0.66 3 1 C1.515 4.465 1.515 4.465 0 8 C-1.125 6.25 -1.125 6.25 -2 4 C-1.125 1.75 -1.125 1.75 0 0 Z " fill="#E63696" transform="translate(149,183)"/>
<path d="M0 0 C-0.33 0.66 -0.66 1.32 -1 2 C-3.97 1.67 -6.94 1.34 -10 1 C-10 0.67 -10 0.34 -10 0 C-6.30458414 -0.95024979 -3.69541586 -0.95024979 0 0 Z " fill="#AF38AF" transform="translate(292,105)"/>
</svg>
