<?xml version="1.0" encoding="UTF-8"?>
<svg version="1.1" xmlns="http://www.w3.org/2000/svg" width="516" height="516">
<path d="M0 0 C1.41182556 0.00273422 1.41182556 0.00273422 2.85217285 0.00552368 C17.02361534 0.05163629 30.8047221 0.6077822 44.75 3.3125 C45.64847656 3.47347168 46.54695313 3.63444336 47.47265625 3.80029297 C70.87381659 8.03544733 93.44904916 15.77872402 114.75 26.3125 C115.55904785 26.71082031 116.3680957 27.10914062 117.20166016 27.51953125 C132.81097015 35.28259839 147.04563671 44.53563755 160.75 55.3125 C162.18279297 56.43591797 162.18279297 56.43591797 163.64453125 57.58203125 C171.00296015 63.5802371 177.76682694 70.123504 184.5 76.8125 C185.81278931 78.1113916 185.81278931 78.1113916 187.15209961 79.43652344 C202.37278861 94.7306033 215.22564836 112.49482939 225.75 131.3125 C226.14783691 132.01391113 226.54567383 132.71532227 226.95556641 133.43798828 C245.61006887 166.56192145 257.70054033 205.445152 257.98828125 243.6171875 C258.00297203 245.22061256 258.00297203 245.22061256 258.01795959 246.85643005 C258.34220765 291.3853527 258.34220765 291.3853527 253.75 311.3125 C253.52505859 312.30830078 253.30011719 313.30410156 253.06835938 314.33007812 C251.51004305 321.05702492 249.71743008 327.69443998 247.75 334.3125 C247.39832764 335.50794434 247.39832764 335.50794434 247.03955078 336.72753906 C243.34684858 349.06434374 238.34843946 360.72794911 232.75 372.3125 C232.36859863 373.10269531 231.98719727 373.89289063 231.59423828 374.70703125 C215.60308597 407.38018617 191.55027417 437.9775935 162.75 460.3125 C161.86634766 461.00279297 161.86634766 461.00279297 160.96484375 461.70703125 C119.67941903 493.83675603 67.26986797 516.28975055 14.390625 516.515625 C13.324953 516.52132507 12.25928101 516.52702515 11.16131592 516.53289795 C8.91240412 516.54229526 6.66347888 516.54886081 4.41455078 516.55273438 C1.05084684 516.56235458 -2.3122224 516.5933941 -5.67578125 516.625 C-68.47368462 516.93287108 -129.88630271 491.77272076 -175.53125 448.8203125 C-177.45443486 447.04634026 -179.36953578 445.37049361 -181.390625 443.71875 C-183.6850781 441.78789876 -185.58739466 439.97256007 -187.5 437.6875 C-189.43063919 435.41195359 -191.37119329 433.18477924 -193.42578125 431.01953125 C-205.51764915 418.25479345 -215.78955825 403.71057336 -224.25 388.3125 C-224.71647949 387.46703613 -225.18295898 386.62157227 -225.66357422 385.75048828 C-238.8388298 361.67274045 -248.32934225 336.87728573 -254.0625 310 C-254.25739014 309.09540039 -254.45228027 308.19080078 -254.65307617 307.25878906 C-257.90581161 291.12843247 -258.62690775 275.03891693 -258.5625 258.625 C-258.56067719 257.65794128 -258.55885437 256.69088257 -258.55697632 255.69451904 C-258.51159245 241.381305 -258.08926942 227.38528121 -255.25 213.3125 C-255.07307617 212.41063965 -254.89615234 211.5087793 -254.71386719 210.57958984 C-253.41502189 204.10667427 -251.90823805 197.70229138 -250.25 191.3125 C-250.03504883 190.48186035 -249.82009766 189.6512207 -249.59863281 188.79541016 C-236.02276725 137.60688866 -204.29171855 88.78276101 -162.25 56.3125 C-160.81527344 55.15234375 -160.81527344 55.15234375 -159.3515625 53.96875 C-128.19775815 29.17126341 -90.96207118 12.93220485 -52.1875 4.5625 C-51.2792749 4.36358154 -50.3710498 4.16466309 -49.43530273 3.9597168 C-33.08984376 0.61720738 -16.63604367 -0.06729791 0 0 Z " fill="#FE0001" transform="translate(258.25,-0.3125)"/>
<path d="M0 0 C3.7295332 0.00907598 7.45906569 0.00701763 11.18860769 0.00663924 C17.42863007 0.00756251 23.66860247 0.01606591 29.90860891 0.0299089 C37.04680931 0.04568936 44.18495562 0.05090374 51.32317221 0.05017334 C59.05179324 0.04949033 66.78039444 0.05646277 74.50900936 0.06561995 C76.68410176 0.06771597 78.85919081 0.06845613 81.03428411 0.06885886 C128.70237254 0.08603879 128.70237254 0.08603879 145.64981985 3.11071944 C146.65013235 3.27185225 147.65044485 3.43298507 148.68106985 3.59900069 C161.84476394 5.81586301 173.00297887 9.29534135 181.71231985 20.11071944 C205.79366649 56.1982389 197.62387903 134.6138258 190.24356985 175.84509444 C187.62526576 188.60932687 182.90485504 200.64009354 172.08731985 208.54821944 C151.28909449 221.25238079 121.70987798 218.54562195 98.27481985 219.29821944 C97.58667448 219.32043689 96.89852911 219.34265433 96.18953085 219.36554503 C68.34650989 220.25915022 40.5301679 220.54462722 12.67234182 220.26892257 C9.20180324 220.23500587 5.73124392 220.20595563 2.26065969 220.17712569 C-41.79396636 219.78336661 -41.79396636 219.78336661 -62.22518015 217.86071944 C-63.43939646 217.74687911 -64.65361277 217.63303878 -65.90462351 217.51574874 C-80.41283646 215.96066749 -94.66763008 213.57639845 -104.97518015 202.45837569 C-110.66201182 195.23559172 -112.8279853 187.08563995 -114.72518015 178.23571944 C-114.87855341 177.59674224 -115.03192667 176.95776504 -115.18994761 176.29942489 C-120.02105328 155.82320677 -119.10103654 134.10915673 -119.09578562 113.19568038 C-119.09562341 109.81623013 -119.10949246 106.43732397 -119.13680124 103.05798507 C-119.68349845 34.29601024 -119.68349845 34.29601024 -103.35018015 16.67321944 C-98.1076649 11.80516957 -94.18280122 8.55681838 -87.22518015 6.54821944 C-86.29705515 6.24947921 -86.29705515 6.24947921 -85.35018015 5.94470382 C-73.60376176 2.39048 -61.09085084 1.80343387 -48.90535593 1.12512374 C-48.17593043 1.08315159 -47.44650492 1.04117944 -46.69497561 0.99793541 C-31.12733753 0.11554601 -15.58869569 -0.04633156 0 0 Z " fill="#FEFDFD" transform="translate(220.72518014907837,147.76428055763245)"/>
<path d="M0 0 C10.71309281 5.3565464 21.14555899 11.18051803 31.52612305 17.14941406 C38.57049659 21.19635598 45.65387364 25.16962336 52.75 29.125 C62.58430668 34.61159544 72.33080809 40.22774513 82 46 C81.20703125 47.921875 81.20703125 47.921875 80 50 C78.18773634 50.68387308 76.36984951 51.35530804 74.53125 51.96484375 C70.26347434 53.71015324 66.50767974 56.28636677 62.63671875 58.76953125 C57.8919933 61.75014818 52.92745951 64.33776504 48 67 C43.63959159 69.38457172 39.28695671 71.78301609 34.9375 74.1875 C34.35371582 74.50993683 33.76993164 74.83237366 33.16845703 75.1645813 C24.73248035 79.83127038 16.4150908 84.65134465 8.29272461 89.8503418 C3.30712731 93 3.30712731 93 0 93 C0 62.31 0 31.62 0 0 Z " fill="#FD0303" transform="translate(226,211)"/>
<path d="M0 0 C1.54880859 0.18175781 1.54880859 0.18175781 3.12890625 0.3671875 C23.92137205 2.76870046 44.56640607 4.32980522 65.5 4.625 C67.19458344 4.65202499 67.19458344 4.65202499 68.92340088 4.67959595 C77.2820283 4.81277832 85.6407616 4.91423844 94 5 C95.13078979 5.01202454 96.26157959 5.02404907 97.42663574 5.03643799 C125.11571304 5.31916407 152.77272404 5.04313801 180.4484024 4.18811417 C182.461473 4.12618522 184.47460222 4.06617145 186.48773193 4.00619507 C205.75214217 3.41765359 224.85019938 2.17215113 244 0 C238.82848841 5.38990935 233.3642581 5.34384589 226.25 5.5625 C224.52589373 5.62217084 222.80191693 5.68575634 221.078125 5.75390625 C220.31918945 5.77783447 219.56025391 5.8017627 218.77832031 5.82641602 C216.97598577 5.81232524 216.97598577 5.81232524 216 7 C214.61628861 7.11693667 213.22684437 7.16720305 211.83837891 7.18945312 C210.95300446 7.20617065 210.06763 7.22288818 209.15542603 7.2401123 C207.70563858 7.26047546 207.70563858 7.26047546 206.2265625 7.28125 C204.73629044 7.30886414 204.73629044 7.30886414 203.21591187 7.33703613 C200.01900358 7.39598147 196.82203814 7.44861303 193.625 7.5 C190.46367626 7.55166666 187.30241726 7.60486434 184.14120483 7.66296387 C182.1722162 7.69910044 180.20315689 7.73163859 178.23403931 7.7598877 C173.75994127 7.84146277 169.35628081 8.03667405 164.90576172 8.50927734 C157.09001893 9.27127878 149.25041332 9.14397471 141.40625 9.1328125 C139.72521958 9.1334874 138.04418926 9.13445898 136.36315918 9.13571167 C132.86351581 9.13717664 129.36389817 9.13507082 125.86425781 9.13037109 C121.37747432 9.12463902 116.8907502 9.12798222 112.40396881 9.13394356 C108.94335479 9.13755162 105.48275494 9.13641006 102.0221405 9.13381577 C100.36671441 9.133149 98.71128702 9.13396617 97.05586243 9.13629532 C94.75139935 9.13882968 92.44703391 9.13497177 90.14257812 9.12939453 C88.83228638 9.12859894 87.52199463 9.12780334 86.17199707 9.12698364 C83 9 83 9 80 8 C77.49931682 7.86929459 75.02173727 7.79017726 72.51953125 7.75390625 C70.96166507 7.72232478 69.40380393 7.69049424 67.84594727 7.65844727 C67.02490509 7.64306915 66.20386292 7.62769104 65.35794067 7.61184692 C51.57829339 7.34470921 37.8199856 6.89367505 24.0625 6.0625 C23.39409088 6.02488556 22.72568176 5.98727112 22.03701782 5.94851685 C15.44105431 5.57227924 9.25115022 5.21702824 3 3 C2.01 2.67 1.02 2.34 0 2 C0 1.34 0 0.68 0 0 Z " fill="#F53A39" transform="translate(136,362)"/>
<path d="M0 0 C4.66363684 0.00562647 9.32721571 0.00235203 13.99085045 -0.003438 C33.15700075 -0.02360504 52.31212161 0.10415106 71.47290039 0.57958984 C72.28700819 0.59927197 73.10111599 0.61895409 73.93989372 0.63923264 C113.50120642 1.62069409 113.50120642 1.62069409 125.71899414 5.13037109 C125.71899414 5.79037109 125.71899414 6.45037109 125.71899414 7.13037109 C129.01899414 7.13037109 132.31899414 7.13037109 135.71899414 7.13037109 C135.71899414 7.79037109 135.71899414 8.45037109 135.71899414 9.13037109 C136.31067383 9.22833984 136.90235352 9.32630859 137.51196289 9.42724609 C142.65460889 10.40040586 145.76609814 11.52626004 149.71899414 15.13037109 C150.70899414 15.46037109 151.69899414 15.79037109 152.71899414 16.13037109 C152.71899414 17.78037109 152.71899414 19.43037109 152.71899414 21.13037109 C152.02676758 20.56769531 152.02676758 20.56769531 151.32055664 19.99365234 C150.66829102 19.48189453 150.01602539 18.97013672 149.34399414 18.44287109 C148.71750977 17.94400391 148.09102539 17.44513672 147.44555664 16.93115234 C139.6214476 11.76365339 132.27749739 9.24025601 123.03149414 7.88037109 C121.54166016 7.64060547 121.54166016 7.64060547 120.02172852 7.39599609 C117.25650234 6.95502979 114.48973023 6.53516005 111.71899414 6.13037109 C110.72222656 5.96852325 109.72545898 5.80667542 108.69848633 5.6399231 C103.91583407 4.96287572 99.12258494 4.7702395 94.29980469 4.57617188 C93.25987964 4.53406145 92.21995459 4.49195103 91.14851665 4.44856453 C77.65149728 3.9555191 64.14942067 3.98390537 50.64550614 3.99604559 C46.85470914 3.99862975 43.0639142 3.99621574 39.27311707 3.99465942 C32.92719071 3.99285744 26.58127612 3.99519411 20.23535156 4 C12.93582151 4.00546478 5.63631931 4.00365599 -1.66321009 3.99817359 C-7.98826336 3.99361664 -14.31330832 3.99300373 -20.63836271 3.99561226 C-24.39152916 3.99715757 -28.14468256 3.99741688 -31.89784813 3.99407578 C-36.07400509 3.99061505 -40.25011482 3.99542885 -44.42626953 4.00097656 C-45.64157852 3.99895233 -46.85688751 3.9969281 -48.10902405 3.99484253 C-54.90949536 4.01147759 -61.61988317 4.30464735 -68.39447498 4.90663338 C-72.7967024 5.24785415 -77.18101756 5.23924324 -81.59350586 5.19287109 C-82.44106445 5.18835938 -83.28862305 5.18384766 -84.16186523 5.17919922 C-86.20161116 5.16767523 -88.24131949 5.14975565 -90.28100586 5.13037109 C-90.28100586 4.80037109 -90.28100586 4.47037109 -90.28100586 4.13037109 C-89.4129834 4.07502197 -88.54496094 4.01967285 -87.65063477 3.96264648 C-84.43376521 3.75547508 -81.21717799 3.544456 -78.00073242 3.33081055 C-76.60792984 3.23909336 -75.215025 3.14891577 -73.82202148 3.06030273 C-71.82110876 2.93275167 -69.82057978 2.79922489 -67.82006836 2.66552734 C-66.61560059 2.5869751 -65.41113281 2.50842285 -64.17016602 2.42749023 C-61.34324512 2.30872726 -61.34324512 2.30872726 -59.28100586 1.13037109 C-56.27321457 0.88026001 -53.29121834 0.70264631 -50.27709961 0.57568359 C-49.28197861 0.533638 -48.2868576 0.49159241 -47.26158142 0.44827271 C-31.51621656 -0.12900591 -15.75341928 -0.01914849 0 0 Z " fill="#F61B19" transform="translate(248.281005859375,144.86962890625)"/>
<path d="M0 0 C0.66 0.33 1.32 0.66 2 1 C2.45110762 3.49730821 2.79517249 5.91997226 3.0625 8.4375 C3.4645658 13.36739922 3.4645658 13.36739922 5 18 C5.10326039 20.43242268 5.14681434 22.83639725 5.14526367 25.26928711 C5.15030159 26.39437431 5.15030159 26.39437431 5.15544128 27.54219055 C5.1649818 30.03725829 5.16689745 32.53225886 5.16796875 35.02734375 C5.17118457 36.77258837 5.17454889 38.51783272 5.17805481 40.26307678 C5.18405753 43.93767926 5.18589408 47.6122582 5.18530273 51.28686523 C5.18520227 55.94164584 5.19872749 60.59626988 5.21607494 65.25101376 C5.22734282 68.86756546 5.22921731 72.48408144 5.22869301 76.10064888 C5.22985591 77.81263317 5.23417978 79.52461891 5.24202538 81.23658562 C5.29180434 93.24480192 4.75319337 105.10507456 3 117 C2.505 117.495 2.505 117.495 2 118 C1.49657464 121.45532858 1.09818844 124.91832312 0.6953125 128.38671875 C-0.01992207 132.10352761 -1.00729908 134.7895374 -3 138 C-3.99 138.33 -4.98 138.66 -6 139 C-5.81824219 138.43796875 -5.63648438 137.8759375 -5.44921875 137.296875 C7.25468821 94.82022197 3.43767563 43.66579474 0 0 Z " fill="#F0332F" transform="translate(412,200)"/>
<path d="M0 0 C3.04951395 1.52475697 5.36399506 2.92885326 8 5 C5.03 4.505 5.03 4.505 2 4 C2 32.38 2 60.76 2 90 C4.475 89.505 4.475 89.505 7 89 C7 88.34 7 87.68 7 87 C8.32 87.33 9.64 87.66 11 88 C9.73461631 88.84158536 8.46246221 89.67299748 7.1875 90.5 C6.12595703 91.19609375 6.12595703 91.19609375 5.04296875 91.90625 C3 93 3 93 0 93 C0 62.31 0 31.62 0 0 Z " fill="#E84040" transform="translate(226,211)"/>
<path d="M0 0 C1.00923019 -0.00197891 1.00923019 -0.00197891 2.03884888 -0.0039978 C4.33323325 -0.00595934 6.62750224 0.00056311 8.921875 0.0078125 C10.11408661 0.00914185 10.11408661 0.00914185 11.3303833 0.01049805 C38.77890139 0.04550634 66.22862119 0.63623207 93.671875 1.1328125 C93.671875 1.4628125 93.671875 1.7928125 93.671875 2.1328125 C92.46046341 2.14311996 91.24905182 2.15342743 90.00093079 2.16404724 C78.54105712 2.2621342 67.08123349 2.36489882 55.62144184 2.47215176 C49.73096261 2.52713327 43.84047824 2.58051129 37.94995117 2.63012695 C32.25702661 2.67813884 26.56415647 2.73049057 20.87129784 2.78575325 C18.70779986 2.80601133 16.54428705 2.82474974 14.3807621 2.84188652 C-0.70870858 2.94324873 -0.70870858 2.94324873 -15.76049805 3.91564941 C-20.0522153 4.27863149 -24.33697026 4.24054088 -28.640625 4.1953125 C-29.48818359 4.19080078 -30.33574219 4.18628906 -31.20898438 4.18164062 C-33.2487303 4.17011664 -35.28843863 4.15219706 -37.328125 4.1328125 C-37.328125 3.8028125 -37.328125 3.4728125 -37.328125 3.1328125 C-36.46010254 3.07746338 -35.59208008 3.02211426 -34.69775391 2.96508789 C-31.48088435 2.75791649 -28.26429713 2.54689741 -25.04785156 2.33325195 C-23.65504898 2.24153477 -22.26214414 2.15135718 -20.86914062 2.06274414 C-18.8682279 1.93519308 -16.86769892 1.8016663 -14.8671875 1.66796875 C-13.66271973 1.5894165 -12.45825195 1.51086426 -11.21728516 1.42993164 C-7.21813717 1.01866215 -4.19157964 0.00398331 0 0 Z " fill="#EB4D4A" transform="translate(195.328125,145.8671875)"/>
<path d="M0 0 C0.33 0 0.66 0 1 0 C1.01981934 1.20720703 1.03963867 2.41441406 1.06005859 3.65820312 C1.72533067 48.12005592 1.72533067 48.12005592 9.59448242 91.76708984 C10 94 10 94 9 96 C5.19902839 92.14488349 4.81052011 87.37386034 3.9375 82.25 C3.76831055 81.26322266 3.59912109 80.27644531 3.42480469 79.25976562 C-0.89208439 52.95918128 -0.21949061 26.5684945 0 0 Z " fill="#FE1412" transform="translate(99,241)"/>
<path d="M0 0 C-5.50260023 3.08096318 -9.82966287 4.62644403 -16.1875 4.75 C-16.96907471 4.77892334 -17.75064941 4.80784668 -18.5559082 4.83764648 C-31.02688963 5.22754983 -43.52514979 5.08386237 -56 5 C-56 4.67 -56 4.34 -56 4 C-54.88665283 3.91959473 -53.77330566 3.83918945 -52.6262207 3.75634766 C-48.43425533 3.45220154 -44.2428262 3.1411285 -40.05151367 2.828125 C-38.24891514 2.69444446 -36.44618238 2.56255984 -34.64331055 2.43261719 C-25.18430147 1.74965624 -15.8530251 1.02688288 -6.52026367 -0.71728516 C-4.01232012 -0.99861797 -2.37508487 -0.79134511 0 0 Z " fill="#EF3D3A" transform="translate(380,363)"/>
<path d="M0 0 C15.15154735 -0.23061716 29.97045506 -0.02808317 45 2 C45 2.66 45 3.32 45 4 C48.3 4 51.6 4 55 4 C55 4.66 55 5.32 55 6 C55.59167969 6.09796875 56.18335938 6.1959375 56.79296875 6.296875 C61.93561475 7.27003477 65.047104 8.39588894 69 12 C69.99 12.33 70.98 12.66 72 13 C72 14.65 72 16.3 72 18 C71.30777344 17.43732422 71.30777344 17.43732422 70.6015625 16.86328125 C69.94929688 16.35152344 69.29703125 15.83976563 68.625 15.3125 C67.99851562 14.81363281 67.37203125 14.31476563 66.7265625 13.80078125 C58.90245346 8.6332823 51.55850325 6.10988492 42.3125 4.75 C41.31927734 4.59015625 40.32605469 4.4303125 39.30273438 4.265625 C36.53768684 3.82468719 33.76959044 3.4111927 31 3 C29.86820312 2.81050781 28.73640625 2.62101563 27.5703125 2.42578125 C22.24705389 1.79095063 16.91756447 1.63136287 11.5625 1.4375 C10.44939453 1.39431641 9.33628906 1.35113281 8.18945312 1.30664062 C5.45974156 1.20120112 2.72994857 1.09907971 0 1 C0 0.67 0 0.34 0 0 Z " fill="#EE3233" transform="translate(329,148)"/>
<path d="M0 0 C0.93972656 0.10957031 1.87945312 0.21914063 2.84765625 0.33203125 C18.21112964 2.09294205 33.60611628 3.53489453 49 5 C49 5.33 49 5.66 49 6 C39.07455231 6.10105094 29.16783575 6.06320832 19.25 5.625 C18.42983398 5.59414307 17.60966797 5.56328613 16.76464844 5.53149414 C10.73565086 5.23326832 5.72469043 3.90823014 0 2 C0 1.34 0 0.68 0 0 Z " fill="#EF3532" transform="translate(136,362)"/>
<path d="M0 0 C0.33 0 0.66 0 1 0 C1.32730139 32.40283775 1.32730139 32.40283775 -4 41 C-5.485 41.495 -5.485 41.495 -7 42 C-6.81824219 41.43796875 -6.63648438 40.8759375 -6.44921875 40.296875 C-2.57192259 27.33278733 -0.8964797 13.47810866 0 0 Z " fill="#F23233" transform="translate(413,297)"/>
<path d="M0 0 C0 0.33 0 0.66 0 1 C-0.71019287 1.0501123 -1.42038574 1.10022461 -2.15209961 1.15185547 C-5.41443711 1.38599833 -8.67592845 1.63042776 -11.9375 1.875 C-13.05447266 1.95363281 -14.17144531 2.03226563 -15.32226562 2.11328125 C-21.01452437 2.54729511 -26.46269121 3.16399801 -32.00952148 4.52294922 C-35.00003713 5.23967528 -38.02184575 5.67690358 -41.0625 6.125 C-42.18785156 6.29257813 -43.31320313 6.46015625 -44.47265625 6.6328125 C-45.30667969 6.75398437 -46.14070312 6.87515625 -47 7 C-47 6.34 -47 5.68 -47 5 C-40.31138245 2.39473068 -34.0125303 1.33270201 -26.875 0.8125 C-25.3734436 0.69189209 -25.3734436 0.69189209 -23.84155273 0.56884766 C-15.87949253 -0.03078402 -7.98110599 -0.22695088 0 0 Z " fill="#F62220" transform="translate(183,147)"/>
<path d="M0 0 C5.31027254 1.46032495 9.46330032 3.98320986 14 7 C12.50742089 10.7199664 12.50742089 10.7199664 10.23046875 11.9765625 C9.55628906 12.19054687 8.88210938 12.40453125 8.1875 12.625 C7.47980469 12.86089844 6.77210938 13.09679687 6.04296875 13.33984375 C5.03169922 13.66662109 5.03169922 13.66662109 4 14 C2.33094605 14.66066719 0.6630584 15.32438252 -1 16 C-1 15.34 -1 14.68 -1 14 C1.90548882 11.95830515 3.40142046 11 7 11 C7 10.34 7 9.68 7 9 C7.66 8.67 8.32 8.34 9 8 C6.03 6.35 3.06 4.7 0 3 C0 2.01 0 1.02 0 0 Z " fill="#F03E3A" transform="translate(294,250)"/>
<path d="M0 0 C0.33 0 0.66 0 1 0 C1.20592932 9.57571317 1.08738149 19.02542725 0.125 28.5625 C0.04652832 29.38919189 -0.03194336 30.21588379 -0.11279297 31.06762695 C-0.33154442 33.05507413 -0.65579809 35.03040016 -1 37 C-1.99 37.495 -1.99 37.495 -3 38 C-2.73877012 33.07009412 -2.47212022 28.14052265 -2.20043945 23.21118164 C-2.10877781 21.53417921 -2.01859874 19.85709506 -1.92993164 18.17993164 C-1.8022389 15.76946367 -1.66922028 13.35933971 -1.53515625 10.94921875 C-1.49656998 10.19912033 -1.4579837 9.44902191 -1.41822815 8.67619324 C-1.2413154 5.57537207 -0.98747976 2.96243927 0 0 Z " fill="#FB1413" transform="translate(416,280)"/>
<path d="M0 0 C2.09758829 3.14638243 2.5813762 5.09292398 3.2890625 8.76171875 C3.50820312 9.87998047 3.72734375 10.99824219 3.953125 12.15039062 C4.17484375 13.31763672 4.3965625 14.48488281 4.625 15.6875 C4.85445313 16.86634766 5.08390625 18.04519531 5.3203125 19.25976562 C5.88626481 22.17206191 6.44589917 25.08542964 7 28 C4.24762595 25.49806281 2.55438689 23.84927968 1.953125 20.13671875 C1.83066406 19.41419922 1.70820312 18.69167969 1.58203125 17.94726562 C1.47246094 17.20154297 1.36289063 16.45582031 1.25 15.6875 C1.12496094 14.95337891 0.99992187 14.21925781 0.87109375 13.46289062 C0.13794712 8.92302114 -0.12142118 4.59579154 0 0 Z " fill="#F32523" transform="translate(102,309)"/>
<path d="M0 0 C-2.45518735 1.50537035 -4.9138452 3.00444426 -7.375 4.5 C-8.07367188 4.92925781 -8.77234375 5.35851562 -9.4921875 5.80078125 C-14.7734375 9 -14.7734375 9 -17 9 C-15.51219674 4.98293121 -13.32728651 3.68752877 -9.625 1.6875 C-8.66851562 1.15511719 -7.71203125 0.62273437 -6.7265625 0.07421875 C-3.73643259 -1.10384103 -2.94282429 -0.91222055 0 0 Z " fill="#F02626" transform="translate(254,289)"/>
<path d="M0 0 C-2.3240499 1.5493666 -4.4401176 2.74393337 -6.9375 3.9375 C-9.8745707 5.38169499 -12.47262253 6.89385211 -15 9 C-15 7.68 -15 6.36 -15 5 C-13.68 4.67 -12.36 4.34 -11 4 C-11 3.34 -11 2.68 -11 2 C-7.17679443 0.57741188 -4.08718695 -0.24042276 0 0 Z " fill="#F12B2A" transform="translate(134,154)"/>
<path d="M0 0 C0.66 0 1.32 0 2 0 C3.20568053 4.67201205 3.09382426 9.21496292 3 14 C2.690625 13.360625 2.38125 12.72125 2.0625 12.0625 C1.1654837 10.06389179 1.1654837 10.06389179 0 9 C-0.07179964 7.48071962 -0.08392007 5.95832518 -0.0625 4.4375 C-0.05347656 3.61121094 -0.04445313 2.78492188 -0.03515625 1.93359375 C-0.02355469 1.29550781 -0.01195312 0.65742188 0 0 Z " fill="#FA1513" transform="translate(412,191)"/>
<path d="M0 0 C0.66 0 1.32 0 2 0 C1.62593017 2.71200625 1.34170728 3.73802442 -0.875 5.4375 C-1.57625 5.953125 -2.2775 6.46875 -3 7 C-4.73490246 9.58443323 -4.73490246 9.58443323 -6 12 C-6 7.22976755 -3.03842252 3.56684382 0 0 Z " fill="#F7C5BF" transform="translate(118,163)"/>
<path d="M0 0 C3.04049801 3.64859761 4.96518762 7.7444533 7 12 C4 12 4 12 2.375 10.5 C0.44988125 6.9997841 0.33100084 3.97201008 0 0 Z " fill="#EE3030" transform="translate(109,338)"/>
<path d="M0 0 C0 0.66 0 1.32 0 2 C-7.28571429 6.42857143 -7.28571429 6.42857143 -12 7 C-9.20232475 3.70861735 -4.40323273 0 0 0 Z " fill="#F9CDC7" transform="translate(304,261)"/>
<path d="M0 0 C0.66 0 1.32 0 2 0 C1.33989524 2.84550012 0.48275034 5.52325999 -0.5625 8.25 C-0.83191406 8.95640625 -1.10132812 9.6628125 -1.37890625 10.390625 C-1.68634766 11.18726563 -1.68634766 11.18726563 -2 12 C-2.33 12 -2.66 12 -3 12 C-3.34833144 7.12335991 -2.41685712 4.22949995 0 0 Z " fill="#F12A2A" transform="translate(111,169)"/>
<path d="M0 0 C0.33 1.32 0.66 2.64 1 4 C-1.97 6.475 -1.97 6.475 -5 9 C-5.66 8.67 -6.32 8.34 -7 8 C-4.69 5.36 -2.38 2.72 0 0 Z " fill="#ED4446" transform="translate(402,346)"/>
<path d="M0 0 C0.33 0 0.66 0 1 0 C1.36923077 7.50769231 1.36923077 7.50769231 -0.5 10 C-0.995 10.33 -1.49 10.66 -2 11 C-3 9 -3 9 -2.44140625 6.8359375 C-2.15136719 6.02382813 -1.86132812 5.21171875 -1.5625 4.375 C-1.27503906 3.55773437 -0.98757813 2.74046875 -0.69140625 1.8984375 C-0.46324219 1.27195312 -0.23507812 0.64546875 0 0 Z " fill="#ED4D4D" transform="translate(409,328)"/>
<path d="M0 0 C0 0.66 0 1.32 0 2 C-0.99 2 -1.98 2 -3 2 C-3.33 2.99 -3.66 3.98 -4 5 C-6.31 5.33 -8.62 5.66 -11 6 C-3.8 0 -3.8 0 0 0 Z " fill="#F9C9C4" transform="translate(260,286)"/>
<path d="M0 0 C-1.45537568 0.83848804 -2.91440373 1.67063934 -4.375 2.5 C-5.59316406 3.19609375 -5.59316406 3.19609375 -6.8359375 3.90625 C-9 5 -9 5 -11 5 C-11 4.34 -11 3.68 -11 3 C-10.01 3 -9.02 3 -8 3 C-8 2.34 -8 1.68 -8 1 C-4.85571151 -0.9090323 -3.47925125 -1.04523725 0 0 Z " fill="#F02829" transform="translate(265,283)"/>
<path d="M0 0 C2.9375 0.75 2.9375 0.75 6 2 C6.875 4.125 6.875 4.125 7 6 C4.69 5.01 2.38 4.02 0 3 C0 2.01 0 1.02 0 0 Z " fill="#F33234" transform="translate(294,250)"/>
<path d="M0 0 C3.3 1.65 6.6 3.3 10 5 C10 5.33 10 5.66 10 6 C5.76907828 6.36265043 3.37362154 5.60250805 0 3 C0 2.01 0 1.02 0 0 Z " fill="#F13535" transform="translate(263,232)"/>
<path d="M0 0 C3.3 1.65 6.6 3.3 10 5 C6 6 6 6 3 5 C3 4.34 3 3.68 3 3 C2.01 2.67 1.02 2.34 0 2 C0 1.34 0 0.68 0 0 Z " fill="#F03636" transform="translate(284,244)"/>
<path d="M0 0 C1.60156595 4.00391487 0.4087561 7.07031192 -1 11 C-1.99 11.495 -1.99 11.495 -3 12 C-2.49202991 7.6822542 -1.80317221 3.96697886 0 0 Z " fill="#F8C3BB" transform="translate(110,176)"/>
<path d="M0 0 C1.98 0.66 3.96 1.32 6 2 C6 3.65 6 5.3 6 7 C1.125 2.25 1.125 2.25 0 0 Z " fill="#ED211D" transform="translate(395,159)"/>
</svg>
