<?xml version="1.0" encoding="UTF-8"?>
<svg version="1.1" xmlns="http://www.w3.org/2000/svg" width="200" height="200">
<path d="M0 0 C7.35411892 6.31795164 13.25434525 13.52436407 18.8125 21.4375 C19.65748047 22.61505859 19.65748047 22.61505859 20.51953125 23.81640625 C27.38334064 34.22983738 32.30701444 48.06152312 33.8125 60.4375 C33.92078125 61.25089844 34.0290625 62.06429687 34.140625 62.90234375 C37.09247833 88.10961761 30.37895628 113.02360417 15.625 133.625 C-1.25027718 154.89247261 -23.33830582 168.81116976 -50.52294922 172.77832031 C-76.06987025 175.69266678 -102.01938089 169.28546631 -122.53515625 153.58984375 C-144.6691017 135.6284241 -157.55951773 112.67692953 -161.1875 84.4375 C-163.4795328 59.13179852 -155.80569784 34.24119559 -140.3125 14.1875 C-125.84001907 -2.98276379 -108.11042417 -15.08864566 -86.1875 -20.5625 C-85.29417969 -20.78808594 -84.40085937 -21.01367188 -83.48046875 -21.24609375 C-53.80820891 -27.40128356 -23.20865851 -19.07246194 0 0 Z " fill="#151414" transform="translate(163.1875,24.5625)"/>
<path d="M0 0 C-3.73077442 4.4769293 -7.58590115 8.66578561 -11.77734375 12.71484375 C-13.63113335 14.62076101 -15.34352863 16.56063777 -17.06640625 18.58203125 C-20.00168979 21.9661805 -23.09875329 25.11367348 -26.3125 28.234375 C-27.70662109 29.58982422 -27.70662109 29.58982422 -29.12890625 30.97265625 C-30.57792897 32.37436394 -32.02720064 33.77587944 -33.48779297 35.16552734 C-34.91962978 36.53109733 -36.33511904 37.91374453 -37.75 39.296875 C-38.59046875 40.10479492 -39.4309375 40.91271484 -40.296875 41.74511719 C-42.23607694 43.81219057 -42.23607694 43.81219057 -41.89794922 46.12255859 C-40.47239416 49.10312369 -38.30266197 51.42776859 -36.125 53.875 C-32.13423705 58.46636853 -28.28202173 63.12380203 -24.5625 67.9375 C-20.2775803 73.46222272 -15.80193322 78.78784222 -11.22583008 84.07275391 C0 97.06834677 0 97.06834677 0 99 C-27.15306345 101.25187345 -27.15306345 101.25187345 -33.09375 96.45703125 C-35.53024039 93.81305974 -37.35586669 90.85672584 -39.05273438 87.69677734 C-40.44308471 85.20633023 -42.22977682 83.11474673 -44.0625 80.9375 C-44.68253906 80.15246094 -45.30257812 79.36742187 -45.94140625 78.55859375 C-47.50933429 76.60984068 -49.09676981 74.69158865 -50.71484375 72.78515625 C-51.17689209 72.23931885 -51.63894043 71.69348145 -52.11499023 71.13110352 C-53.43740448 69.57371772 -54.76544098 68.02111114 -56.09375 66.46875 C-58 64 -58 64 -58 62 C-63.38390185 66.54449982 -68.30967671 71.30472169 -73.0625 76.5 C-74.37288382 77.89659762 -75.68410548 79.29240952 -76.99609375 80.6875 C-79.66618497 83.5401005 -82.27034181 86.43853537 -84.84765625 89.375 C-93.9945493 99.51141415 -93.9945493 99.51141415 -99.83203125 100.93359375 C-103.041742 100.93707123 -105.87610723 100.71117289 -109 100 C-104.89894496 95.09995707 -100.62567788 90.53103973 -96.0625 86.0625 C-90.64355377 80.72136435 -90.64355377 80.72136435 -85.5625 75.0625 C-83.22894755 72.33810968 -80.81381643 69.79585194 -78.21484375 67.32421875 C-77.52511475 66.65575928 -76.83538574 65.9872998 -76.12475586 65.29858398 C-74.72325836 63.94732976 -73.31144938 62.60667856 -71.88891602 61.27758789 C-71.24494873 60.65489014 -70.60098145 60.03219238 -69.9375 59.390625 C-69.34839844 58.83407227 -68.75929687 58.27751953 -68.15234375 57.70410156 C-66.76783594 56.05210768 -66.76783594 56.05210768 -67.22509766 53.9206543 C-68.23912482 51.40731099 -69.6476675 49.65292485 -71.375 47.5625 C-72.09429687 46.68722656 -72.81359375 45.81195313 -73.5546875 44.91015625 C-76.6715379 41.20080554 -79.79850905 37.50024144 -82.93774414 33.80981445 C-86.26114768 29.89693173 -89.49060454 25.9210754 -92.67578125 21.89453125 C-94.63266573 19.45747008 -96.61157707 17.04342232 -98.60546875 14.63671875 C-99.24572998 13.86360352 -99.88599121 13.09048828 -100.5456543 12.29394531 C-101.83806548 10.73562516 -103.13246823 9.17895438 -104.42895508 7.62402344 C-105.0195874 6.91149414 -105.61021973 6.19896484 -106.21875 5.46484375 C-106.75435547 4.821521 -107.28996094 4.17819824 -107.84179688 3.51538086 C-109 2 -109 2 -109 1 C-82.02148902 -1.42497481 -82.02148902 -1.42497481 -75.71875 3.73046875 C-73.0708426 6.58686641 -71.02804659 9.77336865 -69.1015625 13.14892578 C-67.444625 15.93325648 -65.35954894 18.29940732 -63.25 20.75 C-61.83243891 22.49927557 -60.4157631 24.24926892 -59 26 C-58.23042969 26.93457031 -57.46085937 27.86914062 -56.66796875 28.83203125 C-55.93191406 29.73308594 -55.19585937 30.63414063 -54.4375 31.5625 C-53.77621094 32.36816406 -53.11492187 33.17382812 -52.43359375 34.00390625 C-51 36 -51 36 -51 38 C-43.39884776 31.58785482 -36.14442581 24.76320009 -29.6875 17.1875 C-28.45847852 15.79153883 -27.22928659 14.39572772 -26 13 C-25.32976807 12.20263428 -25.32976807 12.20263428 -24.64599609 11.38916016 C-17.22060765 2.65213726 -12.24393139 -2.34458261 0 0 Z " fill="#D4D2D5" transform="translate(154,49)"/>
<path d="M0 0 C4.27717359 -0.95553878 7.73696319 -1.10451408 12 0 C16.34329395 3.25747046 19.49983564 7.86817221 22.68505859 12.20947266 C24.40604923 14.55290848 26.23054647 16.80520491 28.0625 19.0625 C28.68382813 19.84882812 29.30515625 20.63515625 29.9453125 21.4453125 C32.85134827 25.05852047 35.85895582 28.58221737 38.86352539 32.11352539 C41.78017061 35.54590964 44.65700688 39.0060174 47.5 42.5 C51.24426355 47.10009522 55.06220874 51.63166095 58.90307617 56.15087891 C62.65383108 60.57167031 66.33066048 65.04935239 69.984375 69.55078125 C71.80338731 71.76109272 73.66865274 73.91643476 75.5625 76.0625 C78 79 78 79 78 81 C73.87751331 81.54831104 70.10893423 81.72632676 66 81 C63.68261319 79.17919608 62.42816187 77.29802703 60.83203125 74.82421875 C58.67817917 71.50388815 56.21336121 68.60966954 53.625 65.625 C52.6679106 64.50376384 51.71217602 63.38136976 50.7578125 62.2578125 C50.29149414 61.70899414 49.82517578 61.16017578 49.34472656 60.59472656 C47.36919072 58.25191608 45.43375754 55.8773435 43.5 53.5 C40.21176517 49.46016863 36.87278574 45.46907935 33.5 41.5 C29.3825339 36.65458409 25.3359414 31.75784535 21.32421875 26.82421875 C18.22689512 23.06058012 15.05895155 19.35879866 11.89477539 15.65136719 C8.8035957 12.00821078 5.88143484 8.2895044 3.12109375 4.390625 C2.0323767 2.84300327 2.0323767 2.84300327 0 2 C0 1.34 0 0.68 0 0 Z " fill="#131212" transform="translate(61,59)"/>
<path d="M0 0 C28.72971329 4.73922525 52.51552668 16.96035932 69.82421875 40.90234375 C70.54222656 41.92457031 71.26023437 42.94679687 72 44 C72.84498047 45.17755859 72.84498047 45.17755859 73.70703125 46.37890625 C83.85953921 61.78178772 88.26308722 80.77810936 87 99 C86.4575039 101.39716895 85.7650076 103.65944104 85 106 C84.67 106 84.34 106 84 106 C83.96559814 105.29617187 83.93119629 104.59234375 83.89575195 103.8671875 C82.30354675 73.61282006 73.99105825 48.59727897 52 27 C37.67620632 14.71219706 18.50800919 6.97500572 -0.05859375 4.45703125 C-0.69925781 4.30621094 -1.33992188 4.15539062 -2 4 C-2.33 3.34 -2.66 2.68 -3 2 C-2.01 2 -1.02 2 0 2 C0 1.34 0 0.68 0 0 Z " fill="#1E1E20" transform="translate(110,2)"/>
<path d="M0 0 C-2.93012476 1.65984908 -5.1463349 2.26956271 -8.5 2.421875 C-33.21406159 3.89540977 -55.52984604 10.98718237 -74 28 C-74.61746094 28.53753906 -75.23492187 29.07507813 -75.87109375 29.62890625 C-93.10907917 45.51333162 -102.31034614 69.00053252 -104 92 C-104.03944816 95.21323178 -104.01533574 98.39919495 -103.875 101.609375 C-104 104 -104 104 -106 107 C-106.66 107 -107.32 107 -108 107 C-108.94519212 77.06891633 -100.97999673 51.96058157 -80.73046875 29.48046875 C-58.68793009 6.29841275 -30.92251899 -0.56491392 0 0 Z " fill="#0A0909" transform="translate(110,2)"/>
<path d="M0 0 C10.91045402 2.04115398 22.62513206 15.99270032 28.76171875 24.8125 C31.40797115 28.81846036 33.99048224 32.87213171 36.05078125 37.21484375 C36.90668778 39.06470322 36.90668778 39.06470322 38.46484375 40.33984375 C46.8410157 49.39804497 47.22029232 66.61946852 47.265625 78.16796875 C46.99029924 82.13994778 46.2295006 85.23831365 45 89 C44.67 89 44.34 89 44 89 C43.96559814 88.29617187 43.93119629 87.59234375 43.89575195 86.8671875 C42.33117983 57.13789154 34.27603951 30.92369984 12 10 C8.21413205 6.97853649 4.34035223 4.17017612 0 2 C0 1.34 0 0.68 0 0 Z " fill="#1E1E1E" transform="translate(150,19)"/>
<path d="M0 0 C10.88374356 2.03615692 22.62006444 15.96213553 28.7265625 24.77734375 C30.92698837 28.12086487 32.9831759 31.54258726 35 35 C35.82371094 36.34384766 35.82371094 36.34384766 36.6640625 37.71484375 C38.61693395 41.05528175 40.35733183 44.27803022 39.546875 48.18359375 C39.36640625 48.78300781 39.1859375 49.38242188 39 50 C38.50371094 48.97261719 38.00742188 47.94523437 37.49609375 46.88671875 C28.81513699 29.08730915 18.42167402 11.21083701 0 2 C0 1.34 0 0.68 0 0 Z " fill="#313135" transform="translate(150,19)"/>
<path d="M0 0 C-1.14759758 3.44279274 -1.55620187 3.60807438 -4.60546875 5.2265625 C-5.34216797 5.6184375 -6.07886719 6.0103125 -6.83789062 6.4140625 C-7.61326172 6.81367188 -8.38863281 7.21328125 -9.1875 7.625 C-9.94353516 8.03234375 -10.69957031 8.4396875 -11.47851562 8.859375 C-15.65488071 11.04716729 -19.23159512 12.55890354 -24 13 C-23.34 12.67 -22.68 12.34 -22 12 C-21.70730225 11.36876221 -21.41460449 10.73752441 -21.11303711 10.0871582 C-19.77889373 7.58538331 -18.67252741 6.92289636 -16.19140625 5.60546875 C-15.44439453 5.20779297 -14.69738281 4.81011719 -13.92773438 4.40039062 C-12.75694336 3.80000977 -12.75694336 3.80000977 -11.5625 3.1875 C-10.78583984 2.76791016 -10.00917969 2.34832031 -9.20898438 1.91601562 C-3.38567342 -1.12855781 -3.38567342 -1.12855781 0 0 Z " fill="#0C0A09" transform="translate(155,179)"/>
<path d="M0 0 C2.35515572 2.8265898 3.47373756 4.99170526 4.16796875 8.59765625 C4.3390918 9.47719971 4.51021484 10.35674316 4.68652344 11.26293945 C4.8518457 12.18679443 5.01716797 13.11064941 5.1875 14.0625 C5.44901855 15.47245239 5.44901855 15.47245239 5.71582031 16.91088867 C6.84609508 23.30600986 7.5481316 29.49855019 7 36 C4.7079772 32.5619658 4.49661578 30.44547573 4 26.375 C3.46580372 22.2780931 2.90918699 18.26630621 1.9375 14.25 C0.81226905 9.54529423 0.3819743 4.81488658 0 0 Z " fill="#272729" transform="translate(188,59)"/>
<path d="M0 0 C0.66 0.66 1.32 1.32 2 2 C-1.3 5.3 -4.6 8.6 -8 12 C-8.66 11.34 -9.32 10.68 -10 10 C-6.7 6.7 -3.4 3.4 0 0 Z " fill="#110E0C" transform="translate(172,162)"/>
<path d="M0 0 C5.26630019 3.40554079 10.2703193 6.87668862 15 11 C14.01 11.33 13.02 11.66 12 12 C10.09765625 10.671875 10.09765625 10.671875 8.0625 8.75 C6.00418472 6.83049211 4.03865881 5.02760387 1.74609375 3.390625 C1.16988281 2.93171875 0.59367188 2.4728125 0 2 C0 1.34 0 0.68 0 0 Z " fill="#151517" transform="translate(152,17)"/>
</svg>
