<?xml version="1.0" encoding="UTF-8"?>
<svg version="1.1" xmlns="http://www.w3.org/2000/svg" width="569" height="569">
<path d="M0 0 C3.65707084 0.00849522 7.31256492 -0.02035626 10.96948242 -0.05200195 C27.14516453 -0.10071141 42.60749363 1.40402714 58.4909668 4.44604492 C59.2504361 4.59089325 60.0099054 4.73574158 60.79238892 4.88497925 C64.90898506 5.69055363 68.98342134 6.62040715 73.0534668 7.63354492 C74.25269775 7.9297876 75.45192871 8.22603027 76.6875 8.53125 C104.39801446 15.61284622 131.36996404 27.03929655 155.4909668 42.44604492 C156.57249023 43.13311523 157.65401367 43.82018555 158.76831055 44.52807617 C183.62751345 60.74894602 207.12966523 81.02924158 225.4909668 104.44604492 C226.48676758 105.6584082 226.48676758 105.6584082 227.50268555 106.89526367 C254.77759787 140.17172841 273.45468909 180.46300864 282.8659668 222.32104492 C283.20567505 223.83142334 283.20567505 223.83142334 283.55224609 225.37231445 C284.26188465 228.7212964 284.88984399 232.07581903 285.4909668 235.44604492 C285.62193756 236.16132355 285.75290833 236.87660217 285.8878479 237.61355591 C288.46745174 252.061717 288.98867381 266.29766595 288.93701172 280.95507812 C288.9285165 284.61214897 288.95736798 288.26764304 288.98901367 291.92456055 C289.03772312 308.10024265 287.53298458 323.56257176 284.4909668 339.44604492 C284.34611847 340.20551422 284.20127014 340.96498352 284.05203247 341.74746704 C283.24645809 345.86406319 282.31660457 349.93849947 281.3034668 354.00854492 C281.00722412 355.20777588 280.71098145 356.40700684 280.40576172 357.64257812 C273.3241655 385.35309259 261.89771517 412.32504217 246.4909668 436.44604492 C245.80389648 437.52756836 245.11682617 438.6090918 244.40893555 439.72338867 C228.1880657 464.58259158 207.90777014 488.08474335 184.4909668 506.44604492 C183.27860352 507.4418457 183.27860352 507.4418457 182.04174805 508.45776367 C148.76528331 535.73267599 108.47400308 554.40976722 66.6159668 563.82104492 C65.60904785 564.04751709 64.60212891 564.27398926 63.56469727 564.50732422 C60.21571532 565.21696277 56.86119269 565.84492211 53.4909668 566.44604492 C52.77568817 566.57701569 52.06040955 566.70798645 51.32345581 566.84292603 C36.87529472 569.42252986 22.63934577 569.94375193 7.98193359 569.89208984 C4.32486275 569.88359462 0.66936868 569.9124461 -2.98754883 569.9440918 C-19.16323093 569.99280125 -34.62556004 568.48806271 -50.5090332 565.44604492 C-51.64823715 565.22877243 -51.64823715 565.22877243 -52.81045532 565.0071106 C-56.92705147 564.20153621 -61.00148775 563.2716827 -65.0715332 562.25854492 C-66.27076416 561.96230225 -67.46999512 561.66605957 -68.70556641 561.36083984 C-96.41608087 554.27924362 -123.38803045 542.85279329 -147.5090332 527.44604492 C-148.59055664 526.75897461 -149.67208008 526.0719043 -150.78637695 525.36401367 C-175.64557986 509.14314382 -199.14773163 488.86284826 -217.5090332 465.44604492 C-218.50483398 464.23368164 -218.50483398 464.23368164 -219.52075195 462.99682617 C-246.79566427 429.72036143 -265.4727555 389.42908121 -274.8840332 347.57104492 C-275.11050537 346.56412598 -275.33697754 345.55720703 -275.5703125 344.51977539 C-276.27995105 341.17079344 -276.90791039 337.81627081 -277.5090332 334.44604492 C-277.70548935 333.37312698 -277.70548935 333.37312698 -277.90591431 332.27853394 C-280.48551814 317.83037284 -281.00674021 303.5944239 -280.95507812 288.93701172 C-280.94658291 285.27994088 -280.97543438 281.6244468 -281.00708008 277.9675293 C-281.05578953 261.79184719 -279.55105099 246.32951808 -276.5090332 230.44604492 C-276.29176071 229.30684097 -276.29176071 229.30684097 -276.07009888 228.1446228 C-275.2645245 224.02802666 -274.33467098 219.95359038 -273.3215332 215.88354492 C-273.02529053 214.68431396 -272.72904785 213.48508301 -272.42382812 212.24951172 C-265.3422319 184.53899726 -253.91578157 157.56704767 -238.5090332 133.44604492 C-237.82196289 132.36452148 -237.13489258 131.28299805 -236.42700195 130.16870117 C-220.2061321 105.30949827 -199.92583654 81.80734649 -176.5090332 63.44604492 C-175.70079102 62.78217773 -174.89254883 62.11831055 -174.05981445 61.43432617 C-140.78334972 34.15941385 -100.49206949 15.48232263 -58.6340332 6.07104492 C-57.62711426 5.84457275 -56.62019531 5.61810059 -55.58276367 5.38476562 C-52.23378172 4.67512707 -48.87925909 4.04716773 -45.5090332 3.44604492 C-44.79375458 3.31507416 -44.07847595 3.18410339 -43.34152222 3.04916382 C-28.89336112 0.46955998 -14.65741218 -0.05166209 0 0 Z " fill="#007DBA" transform="translate(280.509033203125,-0.446044921875)"/>
<path d="M0 0 C1.04800781 0.37382812 2.09601563 0.74765625 3.17578125 1.1328125 C22.99486626 8.73810306 36.56365488 22.6099968 45.65234375 41.546875 C49.99643813 52.67782987 53.12941713 64.98123324 53.12025452 76.94760132 C53.12153615 77.95984502 53.12153615 77.95984502 53.12284368 78.99253809 C53.124483 81.24033286 53.11900261 83.48805202 53.11352539 85.73583984 C53.11324316 87.35246784 53.11340196 88.96909596 53.1139679 90.58572388 C53.11425446 94.96540546 53.10838041 99.34505958 53.10139394 103.72473478 C53.09513704 108.30514607 53.09455475 112.885558 53.09336853 117.4659729 C53.09026211 126.13560794 53.082058 134.80523035 53.07201904 143.47485983 C53.06083652 153.3466353 53.05534206 163.21841138 53.05032361 173.0901916 C53.03987482 193.39346968 53.02153789 213.69673045 53 234 C29.57 234 6.14 234 -18 234 C-18.02578125 224.5125 -18.0515625 215.025 -18.078125 205.25 C-18.10331066 199.21612558 -18.12949591 193.18228249 -18.16015625 187.1484375 C-18.20856806 177.58496363 -18.25306168 168.02159392 -18.27099609 158.45800781 C-18.28408097 151.49050436 -18.31121766 144.52321481 -18.35461307 137.55583191 C-18.37707582 133.87313689 -18.39291995 130.19070416 -18.39188385 126.50793457 C-17.79439547 96.95040925 -17.79439547 96.95040925 -30.66015625 71.13671875 C-40.81680943 61.81295741 -52.6963296 61.26942802 -65.84423828 61.82080078 C-76.02348149 62.66695758 -84.19024606 68.46877446 -90.6875 76 C-96.90977423 84.37230491 -100.09069753 95.35712105 -100.15821838 105.72639465 C-100.1680072 106.86917877 -100.17779602 108.01196289 -100.18788147 109.18937683 C-100.19363693 110.43375015 -100.1993924 111.67812347 -100.20532227 112.96020508 C-100.21522186 114.27766724 -100.22512146 115.59512939 -100.23532104 116.95251465 C-100.26230025 120.55745626 -100.2833475 124.16241086 -100.30332303 127.76739717 C-100.32522579 131.53771967 -100.35259345 135.30800244 -100.37937927 139.07829285 C-100.42924823 146.21442197 -100.47420851 153.35057322 -100.51740164 160.48674554 C-100.57606733 170.1322995 -100.642323 179.77780114 -100.70815182 189.42330837 C-100.81163581 204.61550364 -100.90498522 219.80774394 -101 235 C-123.77 235 -146.54 235 -170 235 C-170 158.44 -170 81.88 -170 3 C-147.23 3 -124.46 3 -101 3 C-100.67 12.24 -100.34 21.48 -100 31 C-98.0509375 28.525 -98.0509375 28.525 -96.0625 26 C-83.31057596 10.48283814 -65.00527839 -1.62264664 -44.70703125 -3.77954102 C-29.65480899 -5.00538487 -14.26679358 -5.42315383 0 0 Z " fill="#FEFEFE" transform="translate(413,216)"/>
<path d="M0 0 C23.43 0 46.86 0 71 0 C71 76.23 71 152.46 71 231 C47.57 231 24.14 231 0 231 C0 154.77 0 78.54 0 0 Z " fill="#FEFEFE" transform="translate(126,219)"/>
<path d="M0 0 C8.8217508 7.23682608 15.05178041 16.49473311 16.20068359 28.01171875 C17.11498551 41.04845267 15.13183386 51.79553074 6.65234375 62.1953125 C-1.4877506 71.085912 -10.32357393 76.49869538 -22.515625 77.203125 C-36.62604371 77.38024323 -45.77966614 74.63008222 -56.23046875 64.9296875 C-65.83206243 54.87773764 -68.412912 44.00513205 -68.20703125 30.52734375 C-67.80633692 18.54830395 -62.30687328 9.81869639 -53.6875 1.6875 C-37.86460382 -11.69693615 -16.91360027 -11.14423808 0 0 Z " fill="#FDFEFE" transform="translate(187,111)"/>
</svg>
